<?xml version="1.0" encoding="UTF-8"?>
<!-- Generated by Pixelmator Pro 4.0 -->
<svg width="11086" height="1846" viewBox="0 0 11086 1846" xmlns="http://www.w3.org/2000/svg">
    <path id="OrgFrame" fill="#000000" stroke="none" d="M 10498.428711 1469.155029 C 10366.241211 1469.155029 10253.680664 1448.847778 10160.740234 1408.233398 C 10067.798828 1367.60376 9996.891602 1305.306885 9948.010742 1221.3125 C 9899.129883 1137.317993 9874.681641 1030.602051 9874.681641 901.179993 C 9874.681641 771.742676 9898.77832 665.041992 9946.97168 581.047485 C 9995.165039 497.052979 10065.392578 434.404785 10157.645508 393.087524 C 10249.899414 351.785522 10360.044922 331.126831 10488.099609 331.126831 C 10617.537109 331.126831 10726.652344 351.449341 10815.467773 392.063721 C 10904.275391 432.678101 10971.400391 493.951172 11016.835938 575.882813 C 11062.27832 657.814453 11085 760.725708 11085 884.646973 L 11085 969.329041 L 10188.625977 969.329041 C 10192.751953 1032.680176 10206.518555 1084.999023 10229.927734 1126.301025 C 10253.336914 1167.618408 10287.762695 1198.239502 10333.198242 1218.210693 C 10378.641602 1238.181641 10435.09375 1248.159546 10502.5625 1248.159546 C 10534.230469 1248.159546 10566.242188 1244.370117 10598.597656 1236.806396 C 10630.960938 1229.227539 10659.870117 1217.874512 10685.349609 1202.716675 C 10710.822266 1187.574097 10731.816406 1168.305908 10748.341797 1144.896973 C 10764.860352 1121.487793 10773.814453 1093.953125 10775.189453 1062.277588 L 11080.867188 1062.277588 C 11080.867188 1125.613525 11067.091797 1182.409424 11039.556641 1232.665527 C 11012.022461 1282.921631 10972.775391 1325.614136 10921.832031 1360.727783 C 10870.888672 1395.841309 10809.615234 1422.688354 10738.012695 1441.268921 C 10666.410156 1459.864746 10586.548828 1469.155029 10498.428711 1469.155029 Z M 10190.688477 781.384277 L 10764.860352 781.384277 C 10764.860352 741.45752 10757.976563 707.383057 10744.208984 679.145508 C 10730.441406 650.923218 10711.509766 627.51416 10687.413086 608.933594 C 10663.316406 590.337769 10635.085938 576.570435 10602.730469 567.616333 C 10570.375 558.662231 10534.230469 554.200439 10494.295898 554.200439 C 10435.09375 554.200439 10383.797852 562.45166 10340.425781 578.984741 C 10297.053711 595.502441 10262.978516 620.974243 10238.194336 655.400269 C 10213.410156 689.826172 10197.572266 731.815796 10190.688477 781.384277 Z M 7823.769531 1444.370728 L 7823.769531 355.911133 L 8073.682617 355.911133 L 8096.396484 523.212524 L 8112.921875 523.212524 C 8143.214355 479.144775 8179.015625 443.007446 8220.317383 414.785156 C 8261.626953 386.547607 8306.375 365.552856 8354.568359 351.785522 C 8402.761719 338.018188 8451.642578 331.126831 8501.210938 331.126831 C 8586.581055 331.126831 8658.871094 346.62085 8718.073242 377.608765 C 8777.283203 408.581543 8821.34375 457.126221 8850.260742 523.212524 L 8866.786133 523.212524 C 8898.454102 479.144775 8934.943359 443.007446 8976.245117 414.785156 C 9017.554688 386.547607 9062.990234 365.552856 9112.566406 351.785522 C 9162.134766 338.018188 9212.390625 331.126831 9263.333984 331.126831 C 9345.954102 331.126831 9416.516602 345.597046 9475.032227 374.506958 C 9533.554688 403.41687 9578.302734 448.172119 9609.282227 508.757568 C 9640.270508 569.343018 9655.756836 647.133789 9655.756836 742.145142 L 9655.756836 1444.370728 L 9352.149414 1444.370728 L 9352.149414 793.776489 C 9352.149414 755.224854 9347.329102 722.174072 9337.6875 694.639404 C 9328.052734 667.104736 9314.62207 645.070923 9297.416992 628.553223 C 9280.204102 612.020142 9258.857422 599.628052 9233.385742 591.376831 C 9207.914063 583.110352 9180.035156 578.984741 9149.742188 578.984741 C 9102.924805 578.984741 9060.239258 590.337769 9021.6875 613.059204 C 8983.136719 635.78064 8952.148438 666.417236 8928.74707 704.96875 C 8905.337891 743.520386 8893.633789 788.963257 8893.633789 841.282166 L 8893.633789 1444.370728 L 8587.956055 1444.370728 L 8587.956055 793.776489 C 8587.956055 755.224854 8583.486328 722.174072 8574.532227 694.639404 C 8565.585938 667.104736 8552.154297 645.070923 8534.253906 628.553223 C 8516.361328 612.020142 8495.014648 599.628052 8470.230469 591.376831 C 8445.446289 583.110352 8417.224609 578.984741 8385.548828 578.984741 C 8338.738281 578.984741 8295.709961 590.337769 8256.462891 613.059204 C 8217.223633 635.78064 8186.243164 666.417236 8163.521484 704.96875 C 8140.808105 743.520386 8129.447266 788.963257 8129.447266 841.282166 L 8129.447266 1444.370728 Z M 6799.341309 1469.155029 C 6748.397461 1469.155029 6698.484863 1464.677979 6649.604004 1455.731445 C 6600.723145 1446.777344 6556.663086 1430.947266 6517.416504 1408.233398 C 6478.177246 1385.511963 6446.853027 1353.500244 6423.443848 1312.182983 C 6400.035156 1270.880981 6388.330566 1218.562012 6388.330566 1155.210938 C 6388.330566 1073.982178 6408.645508 1008.583496 6449.259766 959.015015 C 6489.881836 909.431213 6547.365234 871.918701 6621.718262 846.446838 C 6696.078613 820.974976 6783.85498 804.105835 6885.054688 795.839233 C 6986.262207 787.588013 7098.134766 783.447144 7220.681152 783.447144 L 7220.681152 721.48645 C 7220.681152 684.310181 7212.414551 652.985962 7195.896973 627.51416 C 7179.371582 602.042358 7153.555664 583.110352 7118.442383 570.71814 C 7083.328613 558.32605 7036.861816 552.122314 6979.034668 552.122314 C 6928.083008 552.122314 6884.710938 556.950806 6848.909668 566.592529 C 6813.108398 576.218994 6785.57373 588.962524 6766.297852 604.792725 C 6747.021973 620.622803 6737.380371 640.25769 6737.380371 663.651489 L 6737.380371 686.372925 L 6435.835938 686.372925 C 6434.460938 680.87207 6433.429688 675.019897 6432.741699 668.816162 C 6432.054199 662.627686 6431.703125 656.087891 6431.703125 649.196533 C 6431.703125 584.485474 6453.393066 528.377197 6496.765137 480.87146 C 6540.137695 433.365723 6603.473633 396.540771 6686.780762 370.381348 C 6770.087402 344.206543 6870.943359 331.126831 6989.356445 331.126831 C 7105.018555 331.126831 7202.436523 343.519043 7281.610352 368.303223 C 7360.783691 393.102783 7421.018066 431.654419 7462.327637 483.973267 C 7503.637207 536.292236 7524.288086 604.456543 7524.288086 688.45105 L 7524.288086 1163.477539 C 7524.288086 1188.261719 7530.484375 1207.193726 7542.876465 1220.273438 C 7555.268555 1233.353149 7572.481445 1239.893066 7594.515137 1239.893066 L 7683.322754 1239.893066 L 7683.322754 1434.041504 C 7666.797363 1439.549927 7641.669434 1446.777344 7607.938965 1455.731445 C 7574.200684 1464.677979 7535.992676 1469.155029 7493.307617 1469.155029 C 7440.98877 1469.155029 7397.960449 1462.615112 7364.22168 1449.5354 C 7330.491211 1436.455688 7304.324219 1417.859863 7285.73584 1393.763184 C 7267.147461 1369.666504 7253.724121 1343.170898 7245.465332 1314.24585 L 7231.00293 1314.24585 C 7199.334961 1344.546143 7162.158203 1371.744629 7119.473633 1395.841309 C 7076.788574 1419.937988 7028.603027 1438.174683 6974.901367 1450.566895 C 6921.199707 1462.958984 6862.68457 1469.155029 6799.341309 1469.155029 Z M 6890.219238 1246.09668 C 6928.770996 1246.09668 6967.330078 1240.932129 7005.881836 1230.602783 C 7044.433105 1220.273438 7079.890625 1205.818481 7112.246094 1187.238037 C 7144.601563 1168.64209 7170.768555 1145.584473 7190.731934 1118.034546 C 7210.695313 1090.499878 7220.681152 1059.527222 7220.681152 1025.101318 L 7220.681152 965.20343 C 7107.769043 965.20343 7012.421387 970.368103 6934.623047 980.697388 C 6856.83252 991.026733 6797.62207 1008.583496 6757 1033.367798 C 6716.385742 1058.1521 6696.070801 1091.875122 6696.070801 1134.567627 C 6696.070801 1162.102295 6704.681152 1183.784668 6721.894043 1199.630127 C 6739.099609 1215.460205 6762.508301 1227.164795 6792.11377 1234.728394 C 6821.71875 1242.307251 6854.417969 1246.09668 6890.219238 1246.09668 Z M 5609.689453 1444.370728 L 5609.689453 355.911133 L 5859.594727 355.911133 L 5882.315918 535.604614 L 5898.841309 535.604614 C 5913.983887 497.052979 5934.642578 462.290894 5960.802246 431.302979 C 5986.961426 400.3302 6019.316895 375.882202 6057.876465 357.989258 C 6096.427734 340.080933 6139.800293 331.126831 6187.993652 331.126831 C 6212.777832 331.126831 6235.843262 333.204956 6257.181641 337.330566 C 6278.527832 341.456177 6296.764648 346.284668 6311.915039 351.785522 L 6311.915039 618.223877 L 6190.056641 618.223877 C 6141.863281 618.223877 6100.561035 625.451294 6066.135254 639.90625 C 6031.708984 654.361206 6003.486816 675.019897 5981.453125 701.866943 C 5959.426758 728.713989 5942.901367 760.389526 5931.884766 796.878296 C 5920.867676 833.367065 5915.359375 872.957703 5915.359375 915.634949 L 5915.359375 1444.370728 Z M 4186.64209 1444.370605 L 4186.64209 25.464355 L 5394.889648 25.464355 L 5394.889648 293.950684 L 4519.166992 293.950684 L 4519.166992 628.553223 L 5304.011719 628.553223 L 5304.011719 894.976074 L 4519.166992 894.976074 L 4519.166992 1444.370605 L 4393.657227 1444.370605 L 4326.735352 1444.370605 L 4186.64209 1444.370605 Z M 2955.680664 1845.052124 C 2900.60376 1845.052124 2849.660156 1835.761841 2802.842041 1817.173584 C 2756.023926 1798.585449 2718.159912 1770.011719 2689.25 1731.460083 C 2660.33252 1692.900879 2645.877686 1644.71521 2645.877686 1586.880249 C 2645.877686 1529.052856 2664.114258 1480.515747 2700.603027 1441.268921 C 2737.091797 1402.029785 2781.503418 1372.768433 2833.822266 1353.500244 C 2796.645996 1334.216797 2768.072266 1308.393555 2748.108887 1276.045654 C 2728.145508 1243.682495 2718.159912 1207.545166 2718.159912 1167.603027 C 2718.159912 1112.533691 2737.779541 1066.067139 2777.026367 1028.203125 C 2816.265381 990.339111 2865.490234 966.578613 2924.700439 956.93689 C 2870.998779 925.276611 2829.001465 886.373596 2798.70874 840.243103 C 2768.416016 794.12793 2753.273438 742.832764 2753.273438 686.372925 C 2753.273438 603.768921 2775.307373 536.292236 2819.367432 483.973267 C 2863.42749 431.654419 2927.106934 393.102783 3010.413818 368.303223 C 3093.713135 343.519043 3193.88916 331.126831 3310.926758 331.126831 C 3354.986816 331.126831 3396.984131 333.541138 3436.910889 338.369629 C 3476.845215 343.182861 3513.333984 349.722656 3546.377197 357.989258 C 3605.587402 327.688843 3648.615967 294.638062 3675.463135 258.852173 C 3702.310303 223.051025 3717.116699 192.75061 3719.866943 167.966431 L 4002.822998 167.966431 C 4002.822998 218.910156 3992.501465 262.977783 3971.842773 300.154175 C 3951.191895 337.330566 3921.93042 367.967041 3884.066406 392.063721 C 3846.202393 416.1604 3801.111084 434.404785 3748.784424 446.796875 C 3787.336182 475.706787 3816.941162 510.484131 3837.592285 551.098633 C 3858.250732 591.713013 3868.57251 636.804443 3868.57251 686.372925 C 3868.57251 764.866577 3848.609131 830.265259 3808.682373 882.584167 C 3768.747803 934.918335 3711.264404 974.493713 3636.223877 1001.340759 C 3561.176025 1028.203125 3469.96167 1041.619019 3362.558105 1041.619019 L 3139.499756 1041.619019 C 3102.323486 1041.619019 3074.093506 1048.158936 3054.817871 1061.238525 C 3035.541992 1074.318359 3025.900146 1091.875122 3025.900146 1113.908936 C 3025.900146 1135.942871 3035.198242 1153.835693 3053.786377 1167.603027 C 3072.374512 1181.385742 3101.635742 1188.261719 3141.562744 1188.261719 L 3680.627686 1188.261719 C 3781.140137 1188.261719 3859.282227 1217.874512 3915.046875 1277.069336 C 3970.811279 1336.279663 3998.69751 1410.632324 3998.69751 1500.135376 C 3998.69751 1568.979614 3980.453125 1629.221313 3943.964355 1680.852539 C 3907.475586 1732.491577 3858.938477 1772.762085 3798.353027 1801.679688 C 3737.767578 1830.597168 3668.92334 1845.052124 3591.8125 1845.052124 Z M 3067.209961 1646.778076 L 3567.02832 1646.778076 C 3590.437256 1646.778076 3611.439697 1642.301025 3630.027832 1633.354492 C 3648.615967 1624.400391 3663.414795 1611.320679 3674.431641 1594.107666 C 3685.44873 1576.902344 3690.957031 1557.962646 3690.957031 1537.311768 C 3690.957031 1501.510498 3679.596436 1474.663452 3656.875 1456.762939 C 3634.153564 1438.862305 3606.275146 1429.915771 3573.224365 1429.915771 L 3071.343262 1429.915771 C 3036.917236 1429.915771 3008.351074 1439.206055 2985.629639 1457.794312 C 2962.908203 1476.382446 2951.547607 1502.19812 2951.547607 1535.248901 C 2951.547607 1568.291992 2962.564453 1595.146729 2984.598145 1615.797729 C 3006.624512 1636.44873 3034.166748 1646.778076 3067.209961 1646.778076 Z M 3310.926758 847.470581 C 3390.788086 847.470581 3453.092529 834.74231 3497.840088 809.270386 C 3542.587646 783.798584 3564.965332 742.832764 3564.965332 686.372925 C 3564.965332 631.303589 3542.587646 590.689209 3497.840088 564.514526 C 3453.092529 538.35498 3390.788086 525.275269 3310.926758 525.275269 C 3231.065674 525.275269 3168.76123 538.35498 3124.005859 564.514526 C 3079.258301 590.689209 3056.880615 631.303589 3056.880615 686.372925 C 3056.880615 723.549316 3066.865967 754.185791 3086.82959 778.282471 C 3106.800537 802.37915 3135.710449 819.935913 3173.574463 830.95282 C 3211.446045 841.969788 3257.225098 847.470581 3310.926758 847.470581 Z M 1892.013062 1444.370728 L 1892.013062 355.911133 L 2141.926025 355.911133 L 2164.639893 535.604614 L 2181.165283 535.604614 C 2196.307617 497.052979 2216.966309 462.290894 2243.125732 431.302979 C 2269.285156 400.3302 2301.648438 375.882202 2340.199951 357.989258 C 2378.751709 340.080933 2422.124023 331.126831 2470.317383 331.126831 C 2495.101563 331.126831 2518.166748 333.204956 2539.505371 337.330566 C 2560.851807 341.456177 2579.096191 346.284668 2594.238525 351.785522 L 2594.238525 618.223877 L 2472.380127 618.223877 C 2424.186768 618.223877 2382.884766 625.451294 2348.458984 639.90625 C 2314.040527 654.361206 2285.810547 675.019897 2263.776855 701.866943 C 2241.750488 728.713989 2225.225342 760.389526 2214.208252 796.878296 C 2203.198975 833.367065 2197.690674 872.957703 2197.690674 915.634949 L 2197.690674 1444.370728 Z M 822.14917 1469.155029 C 652.785034 1469.155029 506.493774 1441.276611 383.252472 1385.511963 C 260.018799 1329.739746 165.358841 1247.471924 99.264946 1138.693237 C 33.171055 1029.914551 0.12793 895.663879 0.12793 735.941406 C 0.12793 574.84375 33.171055 439.90564 99.264946 331.126831 C 165.358841 222.363403 260.018799 140.080322 383.252472 84.323364 C 506.493774 28.551147 652.785034 0.680298 822.14917 0.680298 C 992.88855 0.680298 1139.867432 28.551147 1263.108765 84.323364 C 1386.342407 140.080322 1481.002319 222.363403 1547.096313 331.126831 C 1613.190186 439.90564 1646.233276 574.84375 1646.233276 735.941406 C 1646.233276 895.663879 1613.190186 1029.914551 1547.096313 1138.693237 C 1481.002319 1247.471924 1386.342407 1329.739746 1263.108765 1385.511963 C 1139.867432 1441.276611 992.88855 1469.155029 822.14917 1469.155029 Z M 822.14917 1202.716675 C 896.501953 1202.716675 963.283447 1193.09021 1022.486023 1173.806763 C 1081.696289 1154.523438 1132.296143 1126.301025 1174.293457 1089.124756 C 1216.290649 1051.948242 1248.646118 1005.81781 1271.367676 950.748474 C 1294.089111 895.663879 1305.442139 833.015625 1305.442139 762.803833 L 1305.442139 707.031616 C 1305.442139 635.429199 1294.089111 572.444824 1271.367676 518.047852 C 1248.646118 463.666138 1216.290649 417.887085 1174.293457 380.695435 C 1132.296143 343.519043 1081.696289 315.296753 1022.486023 296.028564 C 963.283447 276.745117 896.501953 267.103394 822.14917 267.103394 C 749.171631 267.103394 683.077759 276.745117 623.875183 296.028564 C 564.664917 315.296753 514.065002 343.519043 472.06778 380.695435 C 430.070557 417.887085 398.058838 463.666138 376.024994 518.047852 C 353.998779 572.444824 342.981873 635.429199 342.981873 707.031616 L 342.981873 762.803833 C 342.981873 833.015625 353.998779 895.663879 376.024994 950.748474 C 398.058838 1005.81781 430.070557 1051.948242 472.06778 1089.124756 C 514.065002 1126.301025 564.664917 1154.523438 623.875183 1173.806763 C 683.077759 1193.09021 749.171631 1202.716675 822.14917 1202.716675 Z"/>
</svg>
