<?xml version="1.0" encoding="UTF-8"?>
<!-- Generated by Pixelmator Pro 3.7.1 -->
<svg width="522" height="247" viewBox="0 0 522 247" xmlns="http://www.w3.org/2000/svg">
    <path id="RB" fill="#00e2ff" fill-rule="evenodd" stroke="none" d="M 321.566406 0.041992 L 435.443359 0.041992 C 449.256836 0.041992 460.627686 0.659668 469.555908 1.89502 C 478.484131 3.130371 487.075439 6.246826 495.329834 11.244385 C 503.584229 16.241943 510.041748 22.839844 514.702393 31.038086 C 519.363037 39.236328 521.693359 48.220703 521.693359 57.991211 C 521.693359 70.457031 518.015381 82.220947 510.659424 93.282959 C 503.303467 104.344971 491.595825 112.34668 475.536133 117.288086 L 475.536133 117.961914 C 501.927856 125.935547 515.123535 143.286499 515.123535 170.015137 C 515.123535 189.556274 506.981445 207.272156 490.697266 223.16333 C 474.412964 239.054504 451.166138 247 420.956055 247 L 268.839355 247 Z M 377.494141 96.567871 L 403.436523 96.567871 C 414.666992 96.567871 423.342529 95.781738 429.463135 94.209473 C 435.58374 92.637207 440.525146 89.352295 444.287354 84.354736 C 448.049561 79.357178 449.930664 74.331543 449.930664 69.277832 C 449.930664 63.213379 447.881104 58.496582 443.781982 55.127441 C 439.682861 51.758301 431.625 50.07373 419.608398 50.07373 L 387.096191 50.07373 Z M 356.773926 193.936035 L 397.540527 193.936035 C 426.290649 193.936035 440.665527 184.390259 440.665527 165.29834 C 440.665527 158.560059 438.587891 153.253662 434.432617 149.37915 C 430.277344 145.504639 421.79834 143.567383 408.995605 143.567383 L 367.555176 143.567383 Z M 52.540527 0.041992 L 193.033691 0.041992 C 217.291626 0.041992 235.035645 6.387207 246.266113 19.077637 C 257.496582 31.768066 263.111816 47.041382 263.111816 64.897949 C 263.111816 84.214478 257.159668 101.088135 245.255371 115.519287 C 233.351074 129.950562 214.315552 139.1875 188.148438 143.230469 C 203.646606 155.808655 222.176636 190.398132 243.739258 247 L 163.04834 247 C 156.310059 229.143433 148.364502 209.630737 139.21167 188.461182 C 130.058838 167.291626 123.180176 155.022461 118.575684 151.65332 C 113.971191 148.28418 108.412109 146.599609 101.898438 146.599609 L 97.855469 146.599609 L 76.79834 247 L 0.150391 247 Z M 107.794434 100.442383 L 122.281738 100.442383 C 146.539673 100.442383 162.234131 99.319336 169.365479 97.073242 C 176.496826 94.827148 181.803223 91.036865 185.284668 85.702393 C 188.766113 80.36792 190.506836 75.22998 190.506836 70.288574 C 190.506836 63.999512 188.429199 59.058105 184.273926 55.464355 C 180.118652 51.870605 171.078247 50.07373 157.152344 50.07373 L 118.407227 50.07373 Z"/>
</svg>
