<?xml version="1.0" encoding="UTF-8"?>
<!-- Generated by Pixelmator Pro 4.0 -->
<svg width="12402" height="12402" viewBox="0 0 12402 12402" xmlns="http://www.w3.org/2000/svg">
    <path id="Shape" fill="#00eaff" fill-rule="evenodd" stroke="none" d="M 12402 10964 L 12402 1438 C 12402 643.814453 11758.185547 0 10964 0 L 1438 0 C 643.814514 0 0 643.814453 0 1438 L 0 10964 C 0 11758.185547 643.814514 12402 1438 12402 L 10964 12402 C 11758.185547 12402 12402 11758.185547 12402 10964 Z M 2251 5246.515625 C 2205.712646 5246.51416 2169 5209.80127 2169 5164.515137 L 2169 2290.53125 C 2169 2245.245117 2205.712646 2208.532227 2251 2208.530273 L 10151 2208.53125 C 10196.287109 2208.532227 10233 2245.245117 10233 2290.530273 L 10233 5164.515625 C 10233 5209.80127 10196.287109 5246.51416 10151 5246.515137 L 8985.257813 5246.515625 L 8985.257813 3540.492188 C 8985.254883 3480.847656 8936.901367 3432.494141 8877.257813 3432.491211 L 3524.210938 3432.492188 C 3464.560059 3432.494141 3416.207031 3480.847656 3416.210938 3540.491211 L 3416.210938 5246.515625 Z M 6201.796875 9001.539063 L 6201.796875 6292.84375 C 6201.797852 6251.978027 6168.666992 6218.847168 6127.796875 6218.843262 L 3416.210938 6218.84375 L 3416.210938 5246.515625 L 8985.257813 5246.515625 L 8985.257813 6218.84375 L 7344.21875 6218.84375 C 7311.635254 6218.847168 7285.220215 6245.262207 7285.21875 6277.843262 L 7285.21875 9001.539063 Z M 2301.617188 10193.15625 C 2260.745361 10193.15625 2227.614502 10160.024414 2227.617188 10119.15625 L 2227.617188 6292.84375 C 2227.614502 6251.978027 2260.745361 6218.847168 2301.617188 6218.843262 L 3416.210938 6218.84375 L 3416.210938 8893.539063 C 3416.207031 8953.188477 3464.560059 9001.541992 3524.210938 9001.539063 L 6201.796875 9001.539063 L 6201.796875 10119.15625 C 6201.797852 10160.024414 6168.666992 10193.15625 6127.796875 10193.15625 Z M 7344.21875 10193.03125 C 7311.635254 10193.030273 7285.220215 10166.615234 7285.21875 10134.03125 L 7285.21875 9001.539063 L 8877.257813 9001.539063 C 8936.901367 9001.541992 8985.254883 8953.188477 8985.257813 8893.539063 L 8985.257813 6218.84375 L 10148.742188 6218.84375 C 10181.328125 6218.847168 10207.744141 6245.262207 10207.742188 6277.843262 L 10207.742188 10134.03125 C 10207.744141 10166.615234 10181.328125 10193.030273 10148.742188 10193.03125 Z"/>
</svg>
