<?xml version="1.0" encoding="UTF-8"?>
<!-- Generated by Pixelmator Pro 3.7.1 -->
<svg width="1241" height="178" viewBox="0 0 1241 178" xmlns="http://www.w3.org/2000/svg">
    <g id="Group">
        <path id="WSK" fill="#000000" fill-rule="evenodd" stroke="none" d="M 599.096619 5.766785 L 525.744446 69.646713 L 577.610779 175.112122 L 521.008301 175.112122 L 489.126099 101.759949 L 452.161224 133.526642 L 443.497589 175.112122 L 390.707123 175.112122 L 426.863373 5.766785 L 479.653839 5.766785 L 465.907532 69.069138 L 466.369598 69.646713 L 530.249512 5.766785 Z M 339.071808 55.438339 L 388.050262 52.781487 C 385.123749 19.513107 360.750397 2.878906 314.929108 2.878906 C 300.45108 2.878906 288.033569 5.092834 277.675446 9.521027 C 267.317352 13.949234 259.424042 20.167572 253.994843 28.176743 C 248.565613 36.185913 245.851013 45.041962 245.851013 54.745247 C 245.851013 65.37265 249.143188 74.459724 255.72757 82.006844 C 262.31192 89.553955 278.041138 97.7938 302.915527 106.727104 C 313.773956 110.654617 320.589355 114.081451 323.361725 117.007957 C 326.134094 119.934464 327.520294 123.130264 327.520294 126.595718 C 327.520294 131.216339 325.344635 135.336258 320.993683 138.955856 C 316.642731 142.575439 310.308502 144.385071 301.991425 144.385071 C 293.751221 144.385071 287.301849 142.209412 282.642609 137.858459 C 277.983368 133.507507 275.653931 126.05677 275.653931 115.506256 L 226.444458 118.856201 L 226.444458 122.783722 C 226.444458 138.955856 232.066071 152.201477 243.309677 162.520966 C 254.553284 172.840439 273.612946 178 300.489716 178 C 319.588348 178 334.316193 175.246765 344.674286 169.740662 C 355.03241 164.234558 362.964325 157.226395 368.470428 148.716888 C 373.976532 140.207382 376.729767 131.023926 376.729767 121.166504 C 376.729767 110.693245 374.188446 101.952354 369.105774 94.94455 C 364.023102 87.936745 357.477356 82.237869 349.46817 77.848289 C 341.458984 73.458717 331.062988 68.799477 318.279053 63.870949 C 308.190613 60.097572 301.799011 56.997795 299.103546 54.571976 C 296.408051 52.146156 295.060486 49.585693 295.060486 46.890213 C 295.060486 43.193726 296.735474 40.017059 300.085419 37.360199 C 303.435364 34.703354 308.229248 33.374924 314.467072 33.374924 C 329.792328 33.374924 337.99353 40.729279 339.071808 55.438339 Z M 161.178345 175.112122 L 240.88385 5.766785 L 189.595093 5.766785 L 146.045853 110.308075 L 145.583786 110.308075 L 143.157974 5.766785 L 92.331268 5.766785 L 45.547596 109.614983 L 44.97002 109.152924 L 47.39584 5.766785 L 0.265625 5.766785 L 4.770719 175.112122 L 57.099121 175.112122 L 105.384491 71.263924 L 105.84655 71.263924 L 109.88958 175.112122 L 161.178345 175.112122 Z"/>
        <g id="g1">
            <path id="Experimental-" fill="#000000" fill-rule="evenodd" stroke="none" d="M 1238.5625 19.734375 L 1226.375 77 L 1210.398438 77 L 1222.625 19.734375 Z M 1162.78125 46.921875 C 1163.744873 42.989563 1165.938721 39.95575 1169.363281 37.820313 C 1172.787842 35.684937 1178.09375 34.617188 1185.28125 34.617188 C 1193.432373 34.617188 1198.933594 35.639282 1201.785156 37.683594 C 1204.636719 39.727905 1206.0625 42.703125 1206.0625 46.609375 C 1206.0625 49.213562 1205.346436 53.497375 1203.914063 59.460938 C 1202.585938 65.112 1201.921875 69.04425 1201.921875 71.257813 C 1201.921875 73.132813 1202.260498 75.046875 1202.9375 77 L 1187.429688 77 C 1187.065186 75.359375 1186.882813 73.783875 1186.882813 72.273438 C 1182.716064 76.075562 1178.067749 77.976563 1172.9375 77.976563 C 1167.703125 77.976563 1163.940186 76.752625 1161.648438 74.304688 C 1159.356689 71.85675 1158.210938 69.01825 1158.210938 65.789063 C 1158.210938 62.117188 1159.233032 59.317749 1161.277344 57.390625 C 1163.321655 55.463501 1165.841064 54.154968 1168.835938 53.464844 C 1171.830811 52.774719 1175.919189 52.16925 1181.101563 51.648438 C 1185.710938 51.153625 1188.783936 50.671875 1190.320313 50.203125 C 1190.632813 48.979187 1190.789063 48.041687 1190.789063 47.390625 C 1190.789063 46.348938 1190.261719 45.515625 1189.207031 44.890625 C 1188.152344 44.265625 1186.752686 43.953125 1185.007813 43.953125 C 1183.184814 43.953125 1181.707031 44.246094 1180.574219 44.832031 C 1179.441406 45.417969 1178.445313 46.648438 1177.585938 48.523438 Z M 1188.5625 58.445313 C 1181.244751 59.66925 1176.947998 60.75 1175.671875 61.6875 C 1174.395752 62.625 1173.757813 63.73175 1173.757813 65.007813 C 1173.757813 66.335938 1174.213623 67.384094 1175.125 68.152344 C 1176.036377 68.920593 1177.208252 69.304688 1178.640625 69.304688 C 1180.645752 69.304688 1182.631592 68.490906 1184.597656 66.863281 C 1186.563721 65.235657 1187.885498 62.429688 1188.5625 58.445313 Z M 1156.648438 35.554688 L 1154.226563 46.921875 L 1145.90625 46.921875 L 1142.859375 61.570313 C 1142.651001 62.195313 1142.546875 62.859375 1142.546875 63.5625 C 1142.546875 65.4375 1143.783813 66.375 1146.257813 66.375 C 1147.039063 66.375 1148.679688 66.127625 1151.179688 65.632813 L 1148.796875 77 C 1144.005127 77.651062 1140.489624 77.976563 1138.25 77.976563 C 1133.796875 77.976563 1130.639404 76.908875 1128.777344 74.773438 C 1126.915283 72.638 1125.984375 70.307312 1125.984375 67.78125 C 1125.984375 66.947937 1126.361938 64.721375 1127.117188 61.101563 L 1130.085938 46.921875 L 1124.382813 46.921875 L 1126.726563 35.554688 L 1132.546875 35.554688 L 1133.914063 29.070313 L 1151.6875 20.203125 L 1148.40625 35.554688 Z M 1090.320313 41.960938 C 1094.695313 37.065063 1100.033813 34.617188 1106.335938 34.617188 C 1110.085938 34.617188 1112.898438 35.574219 1114.773438 37.488281 C 1116.648438 39.402344 1117.585938 41.752563 1117.585938 44.539063 C 1117.585938 46.20575 1117.065186 49.486938 1116.023438 54.382813 L 1111.21875 77 L 1095.28125 77 L 1099.382813 57.742188 C 1100.372437 53.028625 1100.867188 50.333313 1100.867188 49.65625 C 1100.867188 47.364563 1099.825562 46.21875 1097.742188 46.21875 C 1095.398438 46.21875 1093.354248 47.31897 1091.609375 49.519531 C 1089.864502 51.720093 1088.549438 54.890625 1087.664063 59.03125 L 1083.757813 77 L 1067.742188 77 L 1076.648438 35.554688 L 1091.53125 35.554688 L 1090.164063 41.804688 Z M 1062.546875 66.375 C 1060.229126 70.489624 1057.201904 73.451782 1053.464844 75.261719 C 1049.727783 77.071594 1045.046875 77.976563 1039.421875 77.976563 C 1031.244751 77.976563 1025.43103 76.134155 1021.980469 72.449219 C 1018.529907 68.764282 1016.804688 64.252625 1016.804688 58.914063 C 1016.804688 55.216125 1017.611938 51.733093 1019.226563 48.464844 C 1020.841187 45.196594 1023.028564 42.45575 1025.789063 40.242188 C 1028.549561 38.028625 1031.270752 36.53772 1033.953125 35.769531 C 1036.635498 35.001343 1039.773438 34.617188 1043.367188 34.617188 C 1051.101563 34.617188 1056.648438 36.296875 1060.007813 39.65625 C 1063.367188 43.015625 1065.046875 47.143188 1065.046875 52.039063 C 1065.046875 53.653625 1064.695313 56.427063 1063.992188 60.359375 L 1032.390625 60.359375 C 1032.833374 65.90625 1035.320313 68.679688 1039.851563 68.679688 C 1042.924561 68.679688 1045.372314 67.429688 1047.195313 64.929688 Z M 1049.265625 52.664063 C 1049.447876 52.091125 1049.539063 51.296875 1049.539063 50.28125 C 1049.539063 48.171875 1048.907593 46.576843 1047.644531 45.496094 C 1046.38147 44.415344 1044.825562 43.875 1042.976563 43.875 C 1041.023438 43.875 1039.226563 44.610657 1037.585938 46.082031 C 1035.945313 47.553406 1034.695313 49.747375 1033.835938 52.664063 Z M 867.039063 66.375 C 864.721313 70.489624 861.694092 73.451782 857.957031 75.261719 C 854.219971 77.071594 849.539063 77.976563 843.914063 77.976563 C 835.736938 77.976563 829.923218 76.134155 826.472656 72.449219 C 823.022095 68.764282 821.296875 64.252625 821.296875 58.914063 C 821.296875 55.216125 822.104126 51.733093 823.71875 48.464844 C 825.333374 45.196594 827.520752 42.45575 830.28125 40.242188 C 833.041748 38.028625 835.762939 36.53772 838.445313 35.769531 C 841.127686 35.001343 844.265625 34.617188 847.859375 34.617188 C 855.59375 34.617188 861.140625 36.296875 864.5 39.65625 C 867.859375 43.015625 869.539063 47.143188 869.539063 52.039063 C 869.539063 53.653625 869.1875 56.427063 868.484375 60.359375 L 836.882813 60.359375 C 837.325562 65.90625 839.8125 68.679688 844.34375 68.679688 C 847.416748 68.679688 849.864624 67.429688 851.6875 64.929688 Z M 853.757813 52.664063 C 853.940063 52.091125 854.03125 51.296875 854.03125 50.28125 C 854.03125 48.171875 853.39978 46.576843 852.136719 45.496094 C 850.873657 44.415344 849.317749 43.875 847.46875 43.875 C 845.515625 43.875 843.71875 44.610657 842.078125 46.082031 C 840.4375 47.553406 839.1875 49.747375 838.328125 52.664063 Z M 906.570313 48.132813 L 912.429688 35.867188 C 910.476563 35.033813 908.653687 34.617188 906.960938 34.617188 C 904.721313 34.617188 902.664063 35.242188 900.789063 36.492188 C 898.914063 37.742188 896.739624 40.203125 894.265625 43.875 L 894.109375 43.71875 L 895.945313 35.554688 L 881.0625 35.554688 L 872.234375 77 L 888.171875 77 L 891.453125 61.492188 C 892.494751 56.674438 893.966187 53.171875 895.867188 50.984375 C 897.768188 48.796875 900.242188 47.703125 903.289063 47.703125 C 904.252563 47.703125 905.346313 47.846375 906.570313 48.132813 Z M 933.054688 35.554688 L 924.148438 77 L 908.171875 77 L 917.039063 35.554688 L 933.054688 35.554688 Z M 983.445313 41.648438 C 986.440186 38.940063 989.174438 37.091187 991.648438 36.101563 C 994.122437 35.111938 996.752563 34.617188 999.539063 34.617188 C 1003.289063 34.617188 1006.101563 35.613281 1007.976563 37.605469 C 1009.851563 39.597656 1010.789063 42.013 1010.789063 44.851563 C 1010.789063 46.544312 1010.619751 48.184875 1010.28125 49.773438 L 1004.382813 77 L 988.40625 77 L 992.234375 59.304688 C 993.197876 54.799438 993.731812 52.117188 993.835938 51.257813 C 993.940063 50.398438 993.992188 49.7995 993.992188 49.460938 C 993.992188 47.299438 992.976563 46.21875 990.945313 46.21875 C 988.575439 46.21875 986.615967 47.208313 985.066406 49.1875 C 983.516846 51.166687 982.286499 54.291626 981.375 58.5625 L 977.429688 77 L 961.453125 77 L 965.203125 59.617188 C 966.192749 54.955688 966.746094 52.195313 966.863281 51.335938 C 966.980469 50.476563 967.039063 49.8255 967.039063 49.382813 C 967.039063 47.273438 965.971436 46.21875 963.835938 46.21875 C 962.221313 46.21875 960.522217 47.045532 958.738281 48.699219 C 956.954346 50.352905 955.632813 53.158813 954.773438 57.117188 L 950.476563 77 L 934.460938 77 L 943.367188 35.554688 L 958.171875 35.554688 L 956.882813 41.492188 L 957.039063 41.648438 C 961.596436 36.960938 966.713501 34.617188 972.390625 34.617188 C 974.994873 34.617188 977.299438 35.229126 979.304688 36.453125 C 981.309937 37.677124 982.690063 39.408813 983.445313 41.648438 Z M 936.335938 19.734375 L 934.070313 30.671875 L 918.171875 30.671875 L 920.398438 19.734375 L 936.335938 19.734375 Z M 788.25 39.890625 C 790.515625 37.807251 792.546875 36.407593 794.34375 35.691406 C 796.140625 34.97522 798.302124 34.617188 800.828125 34.617188 C 805.489624 34.617188 809.063843 36.166626 811.550781 39.265625 C 814.03772 42.364624 815.28125 46.54425 815.28125 51.804688 C 815.28125 58.835999 813.412842 64.96875 809.675781 70.203125 C 805.938721 75.4375 801.21875 78.054688 795.515625 78.054688 C 789.708252 78.054688 785.320313 75.867188 782.351563 71.492188 L 777.78125 92.859375 L 761.84375 92.859375 L 774.1875 35.554688 L 788.875 35.554688 L 788.09375 39.734375 L 788.25 39.890625 Z M 711.609375 32.039063 L 714.226563 19.734375 L 667.429688 19.734375 L 655.203125 77 L 704.382813 77 L 707.195313 63.953125 L 675.671875 63.953125 L 678.09375 52.742188 L 706.0625 52.742188 L 708.640625 41.140625 L 680.632813 41.140625 L 682.546875 32.039063 L 711.609375 32.039063 Z M 767.46875 35.554688 L 748.328125 56.453125 L 759.070313 77 L 742.15625 77 L 736.882813 65.007813 L 726.492188 77 L 708.015625 77 L 728.5625 54.421875 L 718.71875 35.554688 L 735.632813 35.554688 L 740.007813 45.789063 L 748.875 35.554688 L 767.46875 35.554688 Z M 791.296875 67.3125 C 793.614624 67.3125 795.606812 65.841187 797.273438 62.898438 C 798.940063 59.955688 799.773438 56.388062 799.773438 52.195313 C 799.773438 49.643188 799.239624 47.807312 798.171875 46.6875 C 797.104126 45.567688 795.828125 45.007813 794.34375 45.007813 C 791.401001 45.007813 789.141968 46.654907 787.566406 49.949219 C 785.990845 53.24353 785.203125 56.609375 785.203125 60.046875 C 785.203125 62.494812 785.821655 64.317688 787.058594 65.515625 C 788.295532 66.713562 789.708374 67.3125 791.296875 67.3125 Z"/>
            <path id="Software" fill="#000000" fill-rule="evenodd" stroke="none" d="M 743.834656 114.873772 C 751.716858 114.873772 757.462524 116.865067 761.071777 120.847641 C 764.680969 124.830215 766.485596 129.490372 766.485596 134.828156 C 766.485596 138.893707 765.448425 143.028351 763.374207 147.232224 C 761.299927 151.436111 758.181641 154.768661 754.019287 157.230164 C 749.856873 159.691666 744.733582 160.922348 738.648987 160.922348 C 730.932739 160.922348 725.235535 159.020966 721.557068 155.218124 C 717.878662 151.415298 716.039551 146.679108 716.039551 141.009445 C 716.039551 136.556656 717.138916 132.256073 719.337646 128.107544 C 721.536377 123.95903 724.723694 120.716316 728.899963 118.379272 C 733.076233 116.042229 738.054321 114.873772 743.834656 114.873772 Z M 739.7276 149.513916 C 742.880493 149.513916 745.383484 147.902924 747.23645 144.680893 C 749.089417 141.458847 750.01593 137.884247 750.01593 133.95697 C 750.01593 131.108292 749.310669 129.110138 747.900208 127.962357 C 746.489685 126.814575 744.927124 126.240715 743.212341 126.240715 C 739.644653 126.240715 736.968872 127.858643 735.184998 131.094482 C 733.401123 134.330322 732.509216 137.635284 732.509216 141.009445 C 732.509216 143.443268 733.207581 145.469116 734.604187 147.087036 C 736.000793 148.704956 737.70874 149.513916 739.7276 149.513916 Z M 713.467468 115.952393 L 695.877747 116.906548 C 695.49054 111.624054 692.545227 108.982872 687.041382 108.982872 C 684.801208 108.982872 683.07959 109.459953 681.876526 110.414116 C 680.673462 111.368271 680.071899 112.509117 680.071899 113.836639 C 680.071899 114.804611 680.555847 115.72422 681.523865 116.595413 C 682.491882 117.466599 684.787354 118.579758 688.4104 119.934967 C 693.001526 121.705025 696.735046 123.378235 699.61145 124.954681 C 702.487793 126.531113 704.838562 128.577698 706.663879 131.094482 C 708.489258 133.611267 709.401917 136.750275 709.401917 140.511627 C 709.401917 144.051743 708.413147 147.349747 706.43573 150.405853 C 704.458313 153.461945 701.609558 155.978668 697.889771 157.956146 C 694.169983 159.93364 688.880615 160.922348 682.021729 160.922348 C 672.369385 160.922348 665.524475 159.069382 661.486511 155.363327 C 657.448608 151.657272 655.429688 146.900345 655.429688 141.092422 L 655.429688 139.681915 L 673.102356 138.478851 C 673.102356 142.267883 673.938965 144.943604 675.612244 146.506241 C 677.285522 148.068863 679.601685 148.850159 682.561035 148.850159 C 685.547913 148.850159 687.822754 148.200195 689.385315 146.900345 C 690.947876 145.600494 691.729248 144.120834 691.729248 142.461426 C 691.729248 141.216873 691.231445 140.069092 690.235779 139.018158 C 689.240112 137.967224 686.79248 136.736481 682.892883 135.325974 C 673.959717 132.117737 668.310852 129.158554 665.946167 126.448143 C 663.581543 123.737732 662.399231 120.474274 662.399231 116.657639 C 662.399231 113.172882 663.374084 109.992393 665.323914 107.116043 C 667.273682 104.239693 670.108582 102.006493 673.828369 100.416183 C 677.548157 98.825874 682.007813 98.030785 687.207336 98.030785 C 703.663208 98.030785 712.416504 104.004585 713.467468 115.952393 Z M 1055.699585 158.039124 C 1059.668457 156.116928 1062.883423 152.971054 1065.344971 148.601242 L 1049.04126 147.066284 C 1047.105225 149.721344 1044.505615 151.048859 1041.242065 151.048859 C 1036.42981 151.048859 1033.788574 148.103424 1033.318359 142.212524 L 1066.879883 142.212524 C 1067.626587 138.036316 1068 135.090866 1068 133.376175 C 1068 128.176651 1066.216187 123.793091 1062.648438 120.225365 C 1059.080688 116.657639 1053.189819 114.873772 1044.975708 114.873772 C 1041.159058 114.873772 1037.826538 115.281693 1034.977783 116.09758 C 1032.129028 116.913483 1029.239136 118.496796 1026.307373 120.847641 C 1023.375671 123.198486 1021.052612 126.109329 1019.337891 129.580276 C 1017.623108 133.051224 1016.765808 136.750275 1016.765808 140.677567 C 1016.765808 146.347229 1018.598022 151.138702 1022.262573 155.052185 C 1025.927124 158.965668 1032.10144 160.922348 1040.785767 160.922348 C 1046.759521 160.922348 1051.730835 159.961243 1055.699585 158.039124 Z M 1012.119446 129.227646 L 1018.342224 116.201294 C 1016.267944 115.316299 1014.332031 114.873772 1012.534302 114.873772 C 1010.155762 114.873772 1007.970886 115.537537 1005.979614 116.865067 C 1003.988342 118.192589 1001.679016 120.806152 999.051575 124.705765 L 998.885681 124.539825 L 1000.835449 115.869415 L 985.029602 115.869415 L 975.653931 159.885208 L 992.579895 159.885208 L 996.064636 143.415588 C 997.171021 138.299042 998.733459 134.579239 1000.752502 132.256073 C 1002.771545 129.932892 1005.398804 128.771317 1008.634705 128.771317 C 1009.657959 128.771317 1010.819519 128.923447 1012.119446 129.227646 Z M 1051.530396 131.509338 C 1051.530396 132.587952 1051.433594 133.431458 1051.23999 134.039932 L 1034.853271 134.039932 C 1035.765991 130.942352 1037.093506 128.612305 1038.835938 127.049683 C 1040.578247 125.487045 1042.486572 124.705765 1044.560913 124.705765 C 1046.524536 124.705765 1048.177002 125.279617 1049.518311 126.427399 C 1050.859741 127.57518 1051.530396 129.269135 1051.530396 131.509338 Z M 932.53009 118.275558 C 928.893127 120.543442 926.56311 123.765411 925.539795 127.941605 L 941.262695 129.642502 C 942.175415 127.651215 943.233276 126.344429 944.43634 125.722153 C 945.639404 125.099869 947.208862 124.788734 949.144897 124.788734 C 950.997986 124.788734 952.484436 125.120621 953.604553 125.784378 C 954.72467 126.448143 955.284729 127.333138 955.284729 128.439438 C 955.284729 129.130875 955.118774 130.126526 954.786865 131.426361 C 953.15509 131.924194 949.891663 132.435822 944.996399 132.961319 C 939.492615 133.514435 935.150635 134.157455 931.970032 134.890381 C 928.789429 135.623306 926.11377 137.013 923.942627 139.059647 C 921.771545 141.106293 920.686035 144.079346 920.686035 147.978958 C 920.686035 151.408432 921.902893 154.422974 924.336731 157.022736 C 926.77063 159.622498 930.766968 160.922348 936.325989 160.922348 C 941.774414 160.922348 946.710999 158.903442 951.136169 154.865509 C 951.136169 156.46962 951.329773 158.142838 951.71698 159.885208 L 968.186584 159.885208 C 967.467468 157.810959 967.107971 155.778183 967.107971 153.786896 C 967.107971 151.436035 967.813232 147.259903 969.223755 141.258362 C 970.744934 134.924927 971.505432 130.375427 971.505432 127.609726 C 971.505432 123.461212 969.991211 120.301468 966.962769 118.130356 C 963.934387 115.959259 958.09198 114.873772 949.435303 114.873772 C 941.802002 114.873772 936.167053 116.007675 932.53009 118.275558 Z M 899.196716 159.885208 L 924.253784 115.869415 L 906.954468 115.869415 L 894.882263 143.332611 L 894.716309 143.332611 L 892.227234 115.869415 L 876.960632 115.869415 L 861.735596 143.664505 L 861.569641 143.664505 L 859.951721 115.869415 L 844.768127 115.869415 L 851.447266 159.885208 L 866.672302 159.885208 L 881.275085 133.708054 L 881.44104 133.708054 L 884.179077 159.885208 L 899.196716 159.885208 Z M 939.229919 143.623016 C 940.585205 142.62738 945.148438 141.479584 952.920044 140.179749 C 952.200928 144.41124 950.797424 147.391235 948.70929 149.119812 C 946.621155 150.848373 944.512451 151.712631 942.382813 151.712631 C 940.861633 151.712631 939.617188 151.304718 938.64917 150.488815 C 937.681091 149.672913 937.197144 148.559753 937.197144 147.149261 C 937.197144 145.794052 937.874695 144.618652 939.229919 143.623016 Z M 838.462402 127.941605 L 841.034485 115.869415 L 832.281067 115.869415 L 835.765869 99.565735 L 816.890076 108.982872 L 815.43811 115.869415 L 809.256836 115.869415 L 806.7677 127.941605 L 812.824524 127.941605 L 809.671631 143.000732 C 808.869568 146.845062 808.468567 149.209717 808.468567 150.094711 C 808.468567 152.777435 809.457336 155.252686 811.434753 157.520554 C 813.41217 159.788437 816.765625 160.922348 821.494934 160.922348 C 823.873474 160.922348 827.606995 160.57666 832.695923 159.885208 L 835.226563 147.813019 C 832.571472 148.338516 830.829102 148.601242 829.99939 148.601242 C 827.371948 148.601242 826.058289 147.605591 826.058289 145.614304 C 826.058289 144.867569 826.168884 144.162323 826.390198 143.498566 L 829.626038 127.941605 L 838.462402 127.941605 Z M 809.505737 109.937035 L 812.202271 99.897614 C 806.615479 98.653061 801.858704 98.030785 797.931335 98.030785 C 795.303894 98.030785 793.056824 98.334984 791.190002 98.943459 C 789.323181 99.551926 787.774353 100.485344 786.54364 101.743706 C 785.312988 103.002068 784.427917 104.391823 783.888611 105.912971 C 783.349304 107.434113 782.567932 110.752869 781.544678 115.869415 L 775.238953 115.869415 L 772.708374 127.941605 L 778.972595 127.941605 L 772.08606 159.885208 L 789.095032 159.885208 L 795.815613 127.941605 L 803.780762 127.941605 L 806.352844 115.869415 L 798.346191 115.869415 C 799.092957 112.356979 799.846558 110.303467 800.607117 109.708862 C 801.367737 109.114265 802.370239 108.816933 803.614807 108.816933 C 805.274231 108.816933 807.237915 109.1903 809.505737 109.937035 Z"/>
        </g>
    </g>
</svg>
