<?xml version="1.0" encoding="UTF-8"?>
<!-- Generated by Pixelmator Pro 3.7.1 -->
<svg width="102" height="31" viewBox="0 0 102 31" xmlns="http://www.w3.org/2000/svg">
    <path id="WSK" fill="#000000" fill-rule="evenodd" stroke="none" d="M 101.515625 1.367188 L 89.113281 12.167969 L 97.882813 30 L 88.3125 30 L 82.921875 17.597656 L 76.671875 22.96875 L 75.207031 30 L 66.28125 30 L 72.394531 1.367188 L 81.320313 1.367188 L 78.996094 12.070313 L 79.074219 12.167969 L 89.875 1.367188 Z M 57.550781 9.765625 L 65.832031 9.316406 C 65.337219 3.691406 61.216187 0.878906 53.46875 0.878906 C 51.020813 0.878906 48.921265 1.253235 47.169922 2.001953 C 45.418579 2.750671 44.083984 3.802063 43.166016 5.15625 C 42.248047 6.510437 41.789063 8.007813 41.789063 9.648438 C 41.789063 11.445313 42.345703 12.98175 43.458984 14.257813 C 44.572266 15.533875 47.23175 16.927063 51.4375 18.4375 C 53.273438 19.101563 54.425781 19.680969 54.894531 20.175781 C 55.363281 20.670593 55.597656 21.210938 55.597656 21.796875 C 55.597656 22.578125 55.229797 23.274719 54.494141 23.886719 C 53.758484 24.498718 52.6875 24.804688 51.28125 24.804688 C 49.888 24.804688 48.797546 24.436829 48.009766 23.701172 C 47.221985 22.965515 46.828125 21.70575 46.828125 19.921875 L 38.507813 20.488281 L 38.507813 21.152344 C 38.507813 23.886719 39.458313 26.126282 41.359375 27.871094 C 43.260437 29.615906 46.483032 30.488281 51.027344 30.488281 C 54.256531 30.488281 56.746704 30.022766 58.498047 29.091797 C 60.24939 28.160828 61.590515 26.975891 62.521484 25.537109 C 63.452454 24.098328 63.917969 22.545593 63.917969 20.878906 C 63.917969 19.108093 63.488281 17.630188 62.628906 16.445313 C 61.769531 15.260437 60.662781 14.296875 59.308594 13.554688 C 57.954407 12.8125 56.196655 12.024719 54.035156 11.191406 C 52.329407 10.553406 51.248718 10.029297 50.792969 9.619141 C 50.337219 9.208984 50.109375 8.776062 50.109375 8.320313 C 50.109375 7.695313 50.392578 7.158203 50.958984 6.708984 C 51.525391 6.259766 52.335938 6.035156 53.390625 6.035156 C 55.981812 6.035156 57.368469 7.278625 57.550781 9.765625 Z M 27.472656 30 L 40.949219 1.367188 L 32.277344 1.367188 L 24.914063 19.042969 L 24.835938 19.042969 L 24.425781 1.367188 L 15.832031 1.367188 L 7.921875 18.925781 L 7.824219 18.847656 L 8.234375 1.367188 L 0.265625 1.367188 L 1.027344 30 L 9.875 30 L 18.039063 12.441406 L 18.117188 12.441406 L 18.800781 30 L 27.472656 30 Z"/>
</svg>
