<?xml version="1.0" encoding="UTF-8"?>
<!-- Generated by Pixelmator Pro 4.0 -->
<svg width="13310" height="2339" viewBox="0 0 13310 2339" xmlns="http://www.w3.org/2000/svg">
    <g id="Group">
        <path id="OrgFrame" fill="#000000" stroke="none" d="M 12762.169922 1912.127563 C 12649.107422 1912.127563 12549.416016 1888.063843 12463.091797 1839.936035 C 12376.767578 1791.808716 12309.542969 1723.819824 12261.415039 1635.967529 C 12213.287109 1548.115234 12189.223633 1444.604004 12189.223633 1325.430908 L 12189.223633 1297.929077 C 12189.223633 1178.755859 12212.905273 1075.244751 12260.268555 987.392456 C 12307.632813 899.540527 12374.09375 831.551636 12459.654297 783.423828 C 12545.214844 735.296143 12644.524414 711.232422 12757.585938 711.232422 C 12869.120117 711.232422 12966.137695 736.059814 13048.642578 785.715576 C 13131.147461 835.371216 13195.316406 904.123779 13241.15332 991.976074 C 13286.988281 1079.828369 13309.90625 1181.811646 13309.90625 1297.929077 L 13309.90625 1396.47583 L 12482.572266 1396.47583 C 12485.62793 1474.397095 12514.65625 1537.802612 12569.660156 1586.694092 C 12624.663086 1635.585693 12691.887695 1660.03125 12771.336914 1660.03125 C 12852.313477 1660.03125 12911.899414 1642.460938 12950.095703 1607.320068 C 12988.292969 1572.179321 13017.321289 1533.219238 13037.183594 1490.439453 L 13273.237305 1614.195557 C 13251.847656 1653.920044 13220.90918 1697.081421 13180.420898 1743.681396 C 13139.932617 1790.28125 13086.076172 1830.004883 13018.849609 1862.854126 C 12951.623047 1895.703369 12866.064453 1912.127563 12762.169922 1912.127563 Z M 12484.864258 1181.04834 L 13016.557617 1181.04834 C 13010.446289 1115.350342 12984.09082 1062.639648 12937.491211 1022.915161 C 12890.891602 983.19104 12830.160156 963.328735 12755.293945 963.328735 C 12677.373047 963.328735 12615.495117 983.19104 12569.660156 1022.915161 C 12523.824219 1062.639648 12495.558594 1115.350342 12484.864258 1181.04834 Z M 10287.042969 1880.04248 L 10287.042969 743.317871 L 10571.224609 743.317871 L 10571.224609 867.073975 L 10612.476563 867.073975 C 10632.338867 828.877319 10665.1875 795.646606 10711.023438 767.381592 C 10756.858398 739.115601 10817.208008 724.983154 10892.074219 724.983154 C 10973.050781 724.983154 11037.983398 740.643921 11086.875977 771.964844 C 11135.767578 803.286133 11173.199219 844.155884 11199.172852 894.575317 L 11240.424805 894.575317 C 11266.399414 845.683838 11303.067383 805.195923 11350.430664 773.11084 C 11397.793945 741.025879 11465.019531 724.983154 11552.107422 724.983154 C 11622.389648 724.983154 11686.176758 739.879761 11743.47168 769.673218 C 11800.766602 799.466187 11846.601563 844.537842 11880.978516 904.888306 C 11915.355469 965.238892 11932.543945 1041.249146 11932.543945 1132.920898 L 11932.543945 1880.04248 L 11643.779297 1880.04248 L 11643.779297 1153.546997 C 11643.779297 1090.904419 11627.737305 1043.923462 11595.651367 1012.602173 C 11563.566406 981.280762 11518.495117 965.620728 11460.435547 965.620728 C 11394.738281 965.620728 11343.9375 986.628662 11308.033203 1028.644897 C 11272.12793 1070.661011 11254.175781 1130.628906 11254.175781 1208.549683 L 11254.175781 1880.04248 L 10965.411133 1880.04248 L 10965.411133 1153.546997 C 10965.411133 1090.904419 10949.369141 1043.923462 10917.283203 1012.602173 C 10885.199219 981.280762 10840.126953 965.620728 10782.068359 965.620728 C 10716.370117 965.620728 10665.569336 986.628662 10629.665039 1028.644897 C 10593.759766 1070.661011 10575.807617 1130.628906 10575.807617 1208.549683 L 10575.807617 1880.04248 Z M 9315.326172 1912.127563 C 9234.349609 1912.127563 9161.777344 1897.994995 9097.606445 1869.729492 C 9033.4375 1841.463989 8982.635742 1800.212402 8945.203125 1745.9729 C 8907.770508 1691.734009 8889.055664 1625.654907 8889.055664 1547.733765 C 8889.055664 1469.8125 8907.770508 1404.497681 8945.203125 1351.786133 C 8982.635742 1299.075073 9034.583008 1259.350952 9101.044922 1232.613403 C 9167.506836 1205.875732 9243.516602 1192.507324 9329.077148 1192.507324 L 9640.759766 1192.507324 L 9640.759766 1128.33728 C 9640.759766 1074.862061 9623.953125 1030.936523 9590.34082 996.559814 C 9556.727539 962.182739 9503.25293 944.994751 9429.916016 944.994751 C 9358.105469 944.994751 9304.631836 961.418945 9269.491211 994.2677 C 9234.349609 1027.116943 9211.432617 1069.514648 9200.737305 1121.461914 L 8934.890625 1032.08252 C 8953.224609 974.02356 8982.634766 920.93103 9023.124023 872.803345 C 9063.612305 824.675537 9117.850586 785.715576 9185.84082 755.922485 C 9253.831055 726.12915 9336.71582 711.232422 9434.5 711.232422 C 9584.229492 711.232422 9702.637695 748.664917 9789.726563 823.529907 C 9876.814453 898.395264 9920.357422 1006.871948 9920.357422 1148.963257 L 9920.357422 1572.943481 C 9920.357422 1618.779175 9941.74707 1641.696777 9984.527344 1641.696777 L 10076.199219 1641.696777 L 10076.199219 1880.04248 L 9883.688477 1880.04248 C 9827.158203 1880.04248 9780.558594 1866.291748 9743.889648 1838.790405 C 9707.22168 1811.288696 9688.887695 1774.620728 9688.887695 1728.784668 L 9688.887695 1726.49292 L 9645.34375 1726.49292 C 9639.231445 1744.827393 9625.481445 1768.890625 9604.09082 1798.684082 C 9582.701172 1828.477417 9549.088867 1854.832764 9503.25293 1877.750854 C 9457.416992 1900.668457 9394.775391 1912.127563 9315.326172 1912.127563 Z M 9365.746094 1678.365601 C 9446.722656 1678.365601 9512.801758 1655.829834 9563.985352 1610.757813 C 9615.168945 1565.685791 9640.759766 1505.718384 9640.759766 1430.852539 L 9640.759766 1407.934937 L 9349.703125 1407.934937 C 9296.227539 1407.934937 9254.211914 1419.394043 9223.655273 1442.311646 C 9193.097656 1465.229736 9177.819336 1497.314331 9177.819336 1538.566772 C 9177.819336 1579.818848 9193.861328 1613.431396 9225.947266 1639.405273 C 9258.032227 1665.378662 9304.630859 1678.365601 9365.746094 1678.365601 Z M 8082.34668 1880.04248 L 8082.34668 743.317871 L 8366.527344 743.317871 L 8366.527344 871.657715 L 8407.780273 871.657715 C 8424.586914 825.821533 8452.469727 792.208984 8491.430664 770.819214 C 8530.390625 749.428711 8575.844727 738.733765 8627.791016 738.733765 L 8765.297852 738.733765 L 8765.297852 995.413818 L 8623.208008 995.413818 C 8549.871094 995.413818 8489.520508 1014.893799 8442.15625 1053.854614 C 8394.792969 1092.814941 8371.112305 1152.782471 8371.112305 1233.759399 L 8371.112305 1880.04248 Z M 6849.367188 1880.04248 L 6849.367188 275.793945 L 7857.751953 275.793945 L 7857.751953 550.807617 L 7151.882324 550.807617 L 7151.882324 938.119385 L 7802.749023 938.119385 L 7802.749023 1213.133423 L 7151.882324 1213.133423 L 7151.882324 1880.04248 Z M 5341.373047 1316.263916 L 5341.373047 1279.595093 C 5341.373047 1160.421509 5365.054688 1058.438232 5412.418457 973.641724 C 5459.782227 888.845581 5522.805664 823.912109 5601.490723 778.84021 C 5680.175781 733.768188 5766.116699 711.232422 5859.316406 711.232422 C 5963.210938 711.232422 6041.894531 729.566772 6095.369629 766.235596 C 6148.845215 802.904297 6187.805176 841.100098 6212.250977 880.824707 L 6253.50293 880.824707 L 6253.50293 743.317871 L 6537.68457 743.317871 L 6537.68457 2081.719238 C 6537.68457 2159.640625 6514.766602 2221.900146 6468.931152 2268.5 C 6423.094727 2315.099854 6361.981445 2338.399414 6285.587891 2338.399414 L 5524.71582 2338.399414 L 5524.71582 2086.302979 L 6184.749512 2086.302979 C 6227.529785 2086.302979 6248.919922 2063.385254 6248.919922 2017.549683 L 6248.919922 1721.909302 L 6207.66748 1721.909302 C 6192.38916 1746.355225 6170.999512 1771.182617 6143.497559 1796.392334 C 6115.996094 1821.602051 6079.328125 1842.609985 6033.491699 1859.416504 C 5987.65625 1876.2229 5929.598145 1884.626221 5859.316406 1884.626221 C 5766.116699 1884.626221 5680.175781 1862.090332 5601.490723 1817.018311 C 5522.805664 1771.946411 5459.782227 1707.013428 5412.418457 1622.216797 C 5365.054688 1537.42041 5341.373047 1435.437012 5341.373047 1316.263916 Z M 5941.820313 1632.529785 C 6030.437012 1632.529785 6104.536621 1604.264771 6164.123535 1547.733765 C 6223.710449 1491.202759 6253.50293 1411.755249 6253.50293 1309.388184 L 6253.50293 1286.470459 C 6253.50293 1182.575806 6224.092285 1102.746094 6165.269531 1046.979248 C 6106.446777 991.211914 6031.964355 963.328735 5941.820313 963.328735 C 5853.20459 963.328735 5779.104492 991.211914 5719.517578 1046.979248 C 5659.930664 1102.746094 5630.138184 1182.575806 5630.138184 1286.470459 L 5630.138184 1309.388184 C 5630.138184 1411.755249 5659.930664 1491.202759 5719.517578 1547.733765 C 5779.104492 1604.264771 5853.20459 1632.529785 5941.820313 1632.529785 Z M 4530.081543 1880.04248 L 4530.081543 743.317871 L 4814.263184 743.317871 L 4814.263184 871.657715 L 4855.515137 871.657715 C 4872.321777 825.821533 4900.20459 792.208984 4939.165039 770.819214 C 4978.125488 749.428711 5023.579102 738.733765 5075.525879 738.733765 L 5213.033203 738.733765 L 5213.033203 995.413818 L 5070.942871 995.413818 C 4997.605469 995.413818 4937.255371 1014.893799 4889.89209 1053.854614 C 4842.52832 1092.814941 4818.846191 1152.782471 4818.846191 1233.759399 L 4818.846191 1880.04248 Z M 3595.033691 1912.127563 C 3393.355713 1912.127563 3232.932617 1856.743408 3113.759033 1745.9729 C 2994.585693 1635.203003 2935 1476.689453 2935 1270.427734 L 2935 885.408325 C 2935 679.146606 2994.585693 520.633057 3113.759033 409.863159 C 3232.932617 299.09314 3393.355713 243.708496 3595.033691 243.708496 C 3796.71167 243.708496 3957.13501 299.09314 4076.30835 409.863159 C 4195.481934 520.633057 4255.067383 679.146606 4255.067383 885.408325 L 4255.067383 1270.427734 C 4255.067383 1476.689453 4195.481934 1635.203003 4076.30835 1745.9729 C 3957.13501 1856.743408 3796.71167 1912.127563 3595.033691 1912.127563 Z M 3595.033691 1641.696777 C 3708.095703 1641.696777 3795.946289 1608.848389 3858.589111 1543.150146 C 3921.231201 1477.452148 3952.552002 1389.601318 3952.552002 1279.595093 L 3952.552002 876.240967 C 3952.552002 766.235107 3921.231201 678.384033 3858.589111 612.686035 C 3795.946289 546.988037 3708.095703 514.139282 3595.033691 514.139282 C 3483.499756 514.139282 3396.031006 546.988037 3332.624512 612.686035 C 3269.218262 678.384033 3237.515381 766.235107 3237.515381 876.240967 L 3237.515381 1279.595093 C 3237.515381 1389.601318 3269.218262 1477.452148 3332.624512 1543.150146 C 3396.031006 1608.848389 3483.499756 1641.696777 3595.033691 1641.696777 Z"/>
        <linearGradient id="linearGradient1" x1="379.333105" y1="347.955238" x2="1814.028671" y2="1788.290867" gradientUnits="userSpaceOnUse">
            <stop offset="0" stop-color="#434343" stop-opacity="1"/>
            <stop offset="1" stop-color="#000000" stop-opacity="1"/>
        </linearGradient>
        <path id="Shape" fill="url(#linearGradient1)" fill-rule="evenodd" stroke="none" d="M 2115.820313 714.726563 L 2115.820313 82 C 2115.816895 36.712646 2079.104248 0 2033.817017 0 L 83 0 C 37.71265 0 1 36.712646 1 82 L 1 714.726563 C 1 760.010376 37.71265 796.723022 83 796.723022 L 328.085938 796.726563 L 328.085938 428.992188 C 328.085144 369.342041 376.438385 320.98877 436.085938 320.992188 L 1680.59375 320.992188 C 1740.237427 320.98877 1788.590698 369.342041 1788.59375 428.992188 L 1788.59375 796.726563 L 2033.820313 796.726563 C 2079.104248 796.723022 2115.816895 760.010376 2115.820313 714.726563 Z M 1342.75 1110.71875 C 1342.749634 1078.136475 1369.164917 1051.721313 1401.749634 1051.721313 L 1788.59375 1051.71875 L 1788.59375 796.726563 L 328.085938 796.726563 L 328.085938 1051.71875 L 984.617188 1051.71875 C 1025.486816 1051.721313 1058.617798 1084.852295 1058.617798 1125.721313 L 1058.617188 1781.492188 L 1342.75 1781.492188 Z M 1058.617188 2020 L 1058.617188 1781.492188 L 436.085938 1781.492188 C 376.438385 1781.494385 328.085144 1733.141113 328.085938 1673.492188 L 328.085938 1051.71875 L 90.375 1051.71875 C 49.502815 1051.721313 16.371887 1084.852295 16.371887 1125.721313 L 16.375 2020 C 16.371887 2060.869141 49.502815 2094 90.371887 2094 L 984.617188 2094 C 1025.486816 2094 1058.617798 2060.869141 1058.617188 2020 Z M 2109.195313 2034.96875 L 2109.195313 1110.71875 C 2109.193359 1078.136475 2082.77832 1051.721313 2050.193359 1051.721313 L 1788.59375 1051.71875 L 1788.59375 1673.492188 C 1788.590698 1733.141113 1740.237427 1781.494385 1680.590698 1781.494385 L 1342.75 1781.492188 L 1342.75 2034.96875 C 1342.749634 2067.552002 1369.164917 2093.967041 1401.749634 2093.967041 L 2050.195313 2093.96875 C 2082.77832 2093.967041 2109.193359 2067.552002 2109.195313 2034.96875 Z"/>
    </g>
</svg>
