<?xml version="1.0" encoding="UTF-8"?>
<!-- Generated by Pixelmator Pro 4.0 -->
<svg width="1598" height="450" viewBox="0 0 1598 450" xmlns="http://www.w3.org/2000/svg">
    <path id="WSK" fill="#000000" fill-rule="evenodd" stroke="none" d="M 1053.47522 441.90686 L 1130.419556 7.99176 L 1269.802368 7.99176 L 1238.2677 185.215729 L 1418.645386 7.99176 L 1597.130493 7.99176 L 1409.815674 186.477356 L 1523.339844 441.90686 L 1363.77478 441.90686 L 1299.444702 278.558197 L 1208.625488 356.763702 L 1192.858154 441.90686 Z M 799.306946 449.475342 C 826.637085 449.475342 852.705566 446.006287 877.512878 439.068634 C 902.320129 432.130951 924.393921 421.72467 943.735046 407.849762 C 963.076538 393.974426 978.31781 376.630463 989.460449 355.817474 C 1000.602295 335.004883 1006.173645 310.933533 1006.173645 283.603424 C 1006.173645 262.580566 1001.233093 245.236618 991.352478 231.571564 C 981.471436 217.906509 968.542358 206.8694 952.564758 198.460266 C 936.587524 190.051117 919.453857 183.428864 901.163696 178.593475 C 882.873474 173.758118 865.529541 169.658661 849.131836 166.295166 C 838.619995 164.192902 829.054749 161.985474 820.435364 159.672913 C 811.815552 157.360352 804.3526 154.627258 798.045715 151.47406 C 791.738892 148.320404 786.903503 144.851776 783.540039 141.067352 C 780.176086 137.283325 778.494385 132.658203 778.494385 127.192413 C 778.494385 121.726227 780.806946 116.575867 785.432007 111.740479 C 790.057129 106.905121 797.099548 102.910797 806.559998 99.757172 C 816.020508 96.603943 827.687988 95.026917 841.563354 95.026917 C 859.222717 95.026917 871.731262 98.495972 879.089478 105.433624 C 886.447693 112.371307 890.126587 120.675293 890.126587 130.345642 L 890.125 135.078125 C 890.126587 136.547791 889.916321 138.754791 889.495789 141.698151 L 1020.046875 141.695313 C 1021.310181 134.129669 1022.150818 128.243378 1022.57135 124.038788 C 1022.991882 119.834229 1023.202148 116.050201 1023.202148 112.686279 C 1023.202148 93.345184 1018.577087 76.63205 1009.326843 62.546448 C 1000.076599 48.461243 987.253052 36.793335 970.854919 27.543121 C 954.456726 18.292908 935.115662 11.460785 912.831177 7.045959 C 890.546692 2.630707 866.370605 0.423676 840.302124 0.423676 C 815.07428 0.423676 790.057129 3.261505 765.249878 8.937958 C 740.442566 14.614014 717.948242 23.653961 697.766052 36.057404 C 677.583862 48.461243 661.396179 64.648712 649.20282 84.620636 C 637.009399 104.59256 630.912659 129.084015 630.912659 158.096313 C 630.912659 176.596344 634.38147 192.258545 641.319153 205.08252 C 648.256775 217.906509 657.506836 228.523071 669.06958 236.932617 C 680.632141 245.341751 693.666382 252.174286 708.172363 257.42981 C 722.678284 262.68573 737.28894 267.205688 752.00531 270.989716 C 765.460144 274.353638 778.494385 277.401703 791.108093 280.134796 C 803.721802 282.86792 815.07428 285.810852 825.165161 288.964478 C 835.25647 292.117706 843.245056 295.902161 849.131836 300.316986 C 855.018127 304.731812 857.961487 310.302734 857.961487 317.030151 C 857.961487 324.598602 855.754089 330.590057 851.338806 335.004883 C 846.92395 339.419739 841.247925 342.678101 834.310242 344.780396 C 827.372986 346.88266 820.119934 348.24942 812.551453 348.879822 C 804.983398 349.51062 798.045715 349.826019 791.738892 349.826019 C 779.545288 349.826019 768.613342 348.879822 758.942993 346.987793 C 749.272217 345.095764 741.704163 341.522034 736.237976 336.266113 C 730.772217 331.01059 728.039124 323.547241 728.039124 313.876495 C 728.039124 310.933533 728.24939 307.885071 728.669739 304.731812 C 729.090271 301.578186 730.141418 298.319824 731.82312 294.955933 L 600.007813 294.953125 C 598.327026 301.262787 597.170715 307.885071 596.5401 314.822693 C 595.909302 321.760376 595.594116 328.172363 595.594116 334.058685 C 595.594116 356.763702 600.74469 375.684265 611.046082 390.820801 C 621.347412 405.957733 635.642883 417.730377 653.933044 426.139526 C 672.223022 434.548645 693.771301 440.540527 718.578613 444.114288 C 743.385925 447.688049 770.295105 449.475342 799.306946 449.475342 Z M 176.1875 441.90625 L 253.757813 238.828125 L 261.640625 218.328125 L 269.84375 197.828125 L 277.726563 177.648438 L 280.25 177.648438 L 281.507813 197.828125 C 281.930634 204.556854 282.246033 211.389374 282.456299 218.327042 C 282.666351 225.264709 282.981781 232.097244 283.402313 238.824631 L 293.492188 441.90625 L 444.226563 441.90625 L 625.234375 7.992188 L 480.179688 7.992188 L 412.0625 193.414063 L 404.8125 213.59375 L 397.554688 233.78125 L 389.992188 253.960938 L 387.46875 253.960938 C 387.466248 247.23378 387.361115 240.506378 387.150848 233.778976 L 386.523438 213.59375 C 386.309967 206.8694 385.994568 200.142014 385.574036 193.415039 L 378.632813 7.992188 L 239.882813 7.992188 L 169.875 193.414063 L 162.3125 213.59375 L 154.742188 233.78125 L 147.171875 253.960938 L 144.648438 253.960938 C 144.650467 247.23378 144.545334 240.506378 144.335052 233.778976 C 144.124786 227.05159 144.019653 220.324188 144.019653 213.596802 C 144.019653 206.8694 143.809387 200.142014 143.389053 193.415039 L 138.34375 7.992188 L 0.851563 7.992188 L 25.453125 441.90625 Z"/>
</svg>
