<?xml version="1.0" encoding="UTF-8"?>
<!-- Generated by Pixelmator Pro 3.7.1 -->
<svg width="251" height="30" viewBox="0 0 251 30" xmlns="http://www.w3.org/2000/svg">
    <path id="RosterBase" fill="#000000" fill-rule="evenodd" stroke="none" d="M 249.546875 23.6875 C 248.388062 25.744812 246.87439 27.225891 245.005859 28.130859 C 243.137329 29.035828 240.796875 29.488281 237.984375 29.488281 C 233.895752 29.488281 230.988953 28.567078 229.263672 26.724609 C 227.538391 24.882141 226.675781 22.626343 226.675781 19.957031 C 226.675781 18.108032 227.079407 16.366516 227.886719 14.732422 C 228.694031 13.098328 229.78772 11.727844 231.167969 10.621094 C 232.548218 9.514343 233.908813 8.76886 235.25 8.384766 C 236.591187 8.000671 238.160156 7.808594 239.957031 7.808594 C 243.824219 7.808594 246.597656 8.648438 248.277344 10.328125 C 249.957031 12.007813 250.796875 14.071594 250.796875 16.519531 C 250.796875 17.326843 250.621094 18.713501 250.269531 20.679688 L 234.46875 20.679688 C 234.690063 23.453125 235.933594 24.839844 238.199219 24.839844 C 239.735718 24.839844 240.959595 24.214844 241.871094 22.964844 Z M 242.90625 16.832031 C 242.997437 16.545593 243.042969 16.148438 243.042969 15.640625 C 243.042969 14.585938 242.727173 13.788391 242.095703 13.248047 C 241.464233 12.707703 240.686157 12.4375 239.761719 12.4375 C 238.785156 12.4375 237.886719 12.805359 237.066406 13.541016 C 236.246094 14.276672 235.621094 15.373718 235.191406 16.832031 Z M 224.15625 13.238281 L 216.714844 14.039063 C 216.493469 12.789063 215.5625 12.164063 213.921875 12.164063 C 212.958313 12.164063 212.229187 12.339844 211.734375 12.691406 C 211.239563 13.042969 210.992188 13.453125 210.992188 13.921875 C 210.992188 14.403625 211.210266 14.804016 211.646484 15.123047 C 212.082703 15.442078 213.251282 15.738281 215.152344 16.011719 C 218.21228 16.467468 220.246704 17.154297 221.255859 18.072266 C 222.265015 18.990234 222.769531 20.217468 222.769531 21.753906 C 222.769531 23.889343 221.779968 25.712219 219.800781 27.222656 C 217.821594 28.733093 214.807312 29.488281 210.757813 29.488281 C 207.4505 29.488281 205.028687 29.006531 203.492188 28.042969 C 201.955688 27.079407 201.057312 25.490906 200.796875 23.277344 L 208.648438 22.59375 C 208.987 24.273438 210.09375 25.113281 211.96875 25.113281 C 212.841187 25.113281 213.61261 24.9245 214.283203 24.546875 C 214.953796 24.16925 215.289063 23.628906 215.289063 22.925781 C 215.289063 22.287781 215.048157 21.858093 214.566406 21.636719 C 214.084656 21.415344 213.173218 21.2005 211.832031 20.992188 C 208.746094 20.510437 206.65625 19.78125 205.5625 18.804688 C 204.46875 17.828125 203.921875 16.597656 203.921875 15.113281 C 203.921875 13.902344 204.332031 12.717468 205.152344 11.558594 C 205.972656 10.399719 207.212891 9.485046 208.873047 8.814453 C 210.533203 8.14386 212.574219 7.808594 214.996094 7.808594 C 217.769531 7.808594 219.895142 8.215515 221.373047 9.029297 C 222.850952 9.843079 223.778625 11.246094 224.15625 13.238281 Z M 177.4375 13.960938 C 177.91925 11.994751 179.016235 10.477844 180.728516 9.410156 C 182.440796 8.342468 185.09375 7.808594 188.6875 7.808594 C 192.763062 7.808594 195.513672 8.319641 196.939453 9.341797 C 198.365234 10.363953 199.078125 11.851563 199.078125 13.804688 C 199.078125 15.10675 198.720093 17.248657 198.003906 20.230469 C 197.339844 23.05603 197.007813 25.022156 197.007813 26.128906 C 197.007813 27.066406 197.177063 28.023438 197.515625 29 L 189.761719 29 C 189.579407 28.179688 189.488281 27.391907 189.488281 26.636719 C 187.404907 28.537781 185.08075 29.488281 182.515625 29.488281 C 179.898438 29.488281 178.016968 28.876282 176.871094 27.652344 C 175.72522 26.428406 175.152344 25.009094 175.152344 23.394531 C 175.152344 21.558594 175.663391 20.158875 176.685547 19.195313 C 177.707703 18.23175 178.967407 17.577454 180.464844 17.232422 C 181.96228 16.88739 184.00647 16.584656 186.597656 16.324219 C 188.902344 16.076843 190.438782 15.835938 191.207031 15.601563 C 191.363281 14.989563 191.441406 14.520813 191.441406 14.195313 C 191.441406 13.6745 191.177734 13.257813 190.650391 12.945313 C 190.123047 12.632813 189.423218 12.476563 188.550781 12.476563 C 187.639282 12.476563 186.900391 12.623047 186.333984 12.916016 C 185.767578 13.208984 185.269531 13.824219 184.839844 14.761719 Z M 190.328125 19.722656 C 186.66925 20.334656 184.520874 20.875 183.882813 21.34375 C 183.244751 21.8125 182.925781 22.365906 182.925781 23.003906 C 182.925781 23.667969 183.153625 24.192078 183.609375 24.576172 C 184.065125 24.960266 184.651001 25.152344 185.367188 25.152344 C 186.369812 25.152344 187.36261 24.745422 188.345703 23.931641 C 189.328796 23.117859 189.989563 21.714844 190.328125 19.722656 Z M 122.886719 23.6875 C 121.727844 25.744812 120.214233 27.225891 118.345703 28.130859 C 116.477173 29.035828 114.136719 29.488281 111.324219 29.488281 C 107.235657 29.488281 104.328796 28.567078 102.603516 26.724609 C 100.878235 24.882141 100.015625 22.626343 100.015625 19.957031 C 100.015625 18.108032 100.41925 16.366516 101.226563 14.732422 C 102.033875 13.098328 103.127563 11.727844 104.507813 10.621094 C 105.888062 9.514343 107.248657 8.76886 108.589844 8.384766 C 109.93103 8.000671 111.5 7.808594 113.296875 7.808594 C 117.164063 7.808594 119.9375 8.648438 121.617188 10.328125 C 123.296875 12.007813 124.136719 14.071594 124.136719 16.519531 C 124.136719 17.326843 123.960938 18.713501 123.609375 20.679688 L 107.808594 20.679688 C 108.029968 23.453125 109.273438 24.839844 111.539063 24.839844 C 113.075562 24.839844 114.2995 24.214844 115.210938 22.964844 Z M 116.246094 16.832031 C 116.337219 16.545593 116.382813 16.148438 116.382813 15.640625 C 116.382813 14.585938 116.067078 13.788391 115.435547 13.248047 C 114.804016 12.707703 114.026062 12.4375 113.101563 12.4375 C 112.125 12.4375 111.226563 12.805359 110.40625 13.541016 C 109.585938 14.276672 108.960938 15.373718 108.53125 16.832031 Z M 98.824219 8.277344 L 97.613281 13.960938 L 93.453125 13.960938 L 91.929688 21.285156 C 91.8255 21.597656 91.773438 21.929688 91.773438 22.28125 C 91.773438 23.21875 92.391907 23.6875 93.628906 23.6875 C 94.019531 23.6875 94.839844 23.563782 96.089844 23.316406 L 94.898438 29 C 92.502563 29.3255 90.744812 29.488281 89.625 29.488281 C 87.398438 29.488281 85.819641 28.954407 84.888672 27.886719 C 83.957703 26.819031 83.492188 25.653625 83.492188 24.390625 C 83.492188 23.973938 83.680969 22.860657 84.058594 21.050781 L 85.542969 13.960938 L 82.691406 13.960938 L 83.863281 8.277344 L 86.773438 8.277344 L 87.457031 5.035156 L 96.34375 0.601563 L 94.703125 8.277344 Z M 79.742188 13.238281 L 72.300781 14.039063 C 72.079407 12.789063 71.148438 12.164063 69.507813 12.164063 C 68.54425 12.164063 67.815125 12.339844 67.320313 12.691406 C 66.8255 13.042969 66.578125 13.453125 66.578125 13.921875 C 66.578125 14.403625 66.796204 14.804016 67.232422 15.123047 C 67.66864 15.442078 68.837219 15.738281 70.738281 16.011719 C 73.798218 16.467468 75.832703 17.154297 76.841797 18.072266 C 77.850891 18.990234 78.355469 20.217468 78.355469 21.753906 C 78.355469 23.889343 77.365906 25.712219 75.386719 27.222656 C 73.407532 28.733093 70.39325 29.488281 66.34375 29.488281 C 63.036438 29.488281 60.614563 29.006531 59.078125 28.042969 C 57.541687 27.079407 56.64325 25.490906 56.382813 23.277344 L 64.234375 22.59375 C 64.572937 24.273438 65.679688 25.113281 67.554688 25.113281 C 68.427063 25.113281 69.198547 24.9245 69.869141 24.546875 C 70.539734 24.16925 70.875 23.628906 70.875 22.925781 C 70.875 22.287781 70.634094 21.858093 70.152344 21.636719 C 69.670593 21.415344 68.759155 21.2005 67.417969 20.992188 C 64.332031 20.510437 62.242188 19.78125 61.148438 18.804688 C 60.054688 17.828125 59.507813 16.597656 59.507813 15.113281 C 59.507813 13.902344 59.917969 12.717468 60.738281 11.558594 C 61.558594 10.399719 62.798828 9.485046 64.458984 8.814453 C 66.119141 8.14386 68.160156 7.808594 70.582031 7.808594 C 73.355469 7.808594 75.481079 8.215515 76.958984 9.029297 C 78.43689 9.843079 79.364563 11.246094 79.742188 13.238281 Z M 142.652344 14.566406 L 145.582031 8.433594 C 144.605469 8.016907 143.694031 7.808594 142.847656 7.808594 C 141.727844 7.808594 140.699219 8.121094 139.761719 8.746094 C 138.824219 9.371094 137.737 10.601563 136.5 12.4375 L 136.421875 12.359375 L 137.339844 8.277344 L 129.898438 8.277344 L 125.484375 29 L 133.453125 29 L 135.09375 21.246094 C 135.614624 18.837219 136.35022 17.085938 137.300781 15.992188 C 138.251343 14.898438 139.488281 14.351563 141.011719 14.351563 C 141.493469 14.351563 142.040344 14.423157 142.652344 14.566406 Z M 163.042969 0.367188 L 149.839844 0.367188 L 143.726563 29 L 161.363281 29 C 164.865906 29 167.561157 28.078796 169.449219 26.236328 C 171.33728 24.39386 172.28125 22.339844 172.28125 20.074219 C 172.28125 16.97522 170.751343 14.963562 167.691406 14.039063 L 167.691406 13.960938 C 169.553406 13.388 170.910767 12.460266 171.763672 11.177734 C 172.616577 9.895203 173.042969 8.53125 173.042969 7.085938 C 173.042969 5.953125 172.772827 4.911438 172.232422 3.960938 C 171.692017 3.010437 170.943359 2.245422 169.986328 1.666016 C 169.029297 1.086609 168.033203 0.725281 166.998047 0.582031 C 165.962891 0.438782 164.644531 0.367188 163.042969 0.367188 Z M 158.648438 22.847656 L 153.921875 22.847656 L 155.171875 17.007813 L 159.976563 17.007813 C 161.460938 17.007813 162.444031 17.232422 162.925781 17.681641 C 163.407532 18.130859 163.648438 18.746094 163.648438 19.527344 C 163.648438 21.740906 161.981812 22.847656 158.648438 22.847656 Z M 159.332031 11.558594 L 156.324219 11.558594 L 157.4375 6.167969 L 161.207031 6.167969 C 162.600281 6.167969 163.534485 6.363281 164.009766 6.753906 C 164.485046 7.144531 164.722656 7.691406 164.722656 8.394531 C 164.722656 8.980469 164.504578 9.563171 164.068359 10.142578 C 163.632141 10.721985 163.059265 11.102844 162.349609 11.285156 C 161.639954 11.467468 160.634155 11.558594 159.332031 11.558594 Z M 52.310547 10.621094 C 50.611328 8.746094 47.90625 7.808594 44.195313 7.808594 C 41.473938 7.808594 39.130249 8.358704 37.164063 9.458984 C 35.197876 10.559265 33.697266 12.085938 32.662109 14.039063 C 31.626953 15.992188 31.109375 18.016907 31.109375 20.113281 C 31.109375 22.782593 31.97522 25.01239 33.707031 26.802734 C 35.438843 28.593079 38.121094 29.488281 41.753906 29.488281 C 44.61853 29.488281 47.030579 28.908875 48.990234 27.75 C 50.94989 26.591125 52.417969 25.022156 53.394531 23.042969 C 54.371094 21.063782 54.859375 19.117188 54.859375 17.203125 C 54.859375 14.690063 54.009766 12.496094 52.310547 10.621094 Z M 23.003906 0.367188 L 6.714844 0.367188 L 0.640625 29 L 9.527344 29 L 11.96875 17.359375 L 12.4375 17.359375 C 13.192688 17.359375 13.837219 17.554688 14.371094 17.945313 C 14.904968 18.335938 15.702454 19.758423 16.763672 22.212891 C 17.82489 24.667358 18.746094 26.929688 19.527344 29 L 28.882813 29 C 26.382813 22.437439 24.234375 18.427063 22.4375 16.96875 C 25.471375 16.5 27.678406 15.429016 29.058594 13.755859 C 30.438782 12.082642 31.128906 10.126343 31.128906 7.886719 C 31.128906 5.816406 30.477844 4.045593 29.175781 2.574219 C 27.873718 1.102844 25.816406 0.367188 23.003906 0.367188 Z M 45.796875 21.841797 C 44.9245 23.358704 43.746094 24.117188 42.261719 24.117188 C 41.311218 24.117188 40.507141 23.736328 39.849609 22.974609 C 39.192078 22.212891 38.863281 21.259094 38.863281 20.113281 C 38.863281 18.524719 39.283203 16.96875 40.123047 15.445313 C 40.962891 13.921875 42.222656 13.160156 43.902344 13.160156 C 44.709656 13.160156 45.445313 13.430359 46.109375 13.970703 C 46.773438 14.511047 47.105469 15.451843 47.105469 16.792969 C 47.105469 18.641968 46.66925 20.32489 45.796875 21.841797 Z M 14.800781 12.007813 L 13.121094 12.007813 L 14.351563 6.167969 L 18.84375 6.167969 C 20.458313 6.167969 21.506531 6.376282 21.988281 6.792969 C 22.470032 7.209656 22.710938 7.782532 22.710938 8.511719 C 22.710938 9.084656 22.509094 9.680359 22.105469 10.298828 C 21.701843 10.917297 21.086609 11.35675 20.259766 11.617188 C 19.432922 11.877625 17.613281 12.007813 14.800781 12.007813 Z"/>
</svg>
