<?xml version="1.0" encoding="UTF-8"?>
<!-- Generated by Pixelmator Pro 4.0 -->
<svg width="13309" height="2339" viewBox="0 0 13309 2339" xmlns="http://www.w3.org/2000/svg">
    <g id="Group">
        <path id="OrgFrame" fill="#000000" stroke="none" d="M 12761.169922 1912.127563 C 12648.107422 1912.127563 12548.416016 1888.063843 12462.091797 1839.936035 C 12375.767578 1791.808716 12308.542969 1723.819824 12260.415039 1635.967529 C 12212.287109 1548.115234 12188.223633 1444.604004 12188.223633 1325.430908 L 12188.223633 1297.929077 C 12188.223633 1178.755859 12211.905273 1075.244751 12259.268555 987.392456 C 12306.632813 899.540527 12373.09375 831.551636 12458.654297 783.423828 C 12544.214844 735.296143 12643.524414 711.232422 12756.585938 711.232422 C 12868.120117 711.232422 12965.137695 736.059814 13047.642578 785.715576 C 13130.147461 835.371216 13194.316406 904.123779 13240.15332 991.976074 C 13285.988281 1079.828369 13308.90625 1181.811646 13308.90625 1297.929077 L 13308.90625 1396.47583 L 12481.572266 1396.47583 C 12484.62793 1474.397095 12513.65625 1537.802612 12568.660156 1586.694092 C 12623.663086 1635.585693 12690.887695 1660.03125 12770.336914 1660.03125 C 12851.313477 1660.03125 12910.899414 1642.460938 12949.095703 1607.320068 C 12987.292969 1572.179321 13016.321289 1533.219238 13036.183594 1490.439453 L 13272.237305 1614.195557 C 13250.847656 1653.920044 13219.90918 1697.081421 13179.420898 1743.681396 C 13138.932617 1790.28125 13085.076172 1830.004883 13017.849609 1862.854126 C 12950.623047 1895.703369 12865.064453 1912.127563 12761.169922 1912.127563 Z M 12483.864258 1181.04834 L 13015.557617 1181.04834 C 13009.446289 1115.350342 12983.09082 1062.639648 12936.491211 1022.915161 C 12889.891602 983.19104 12829.160156 963.328735 12754.293945 963.328735 C 12676.373047 963.328735 12614.495117 983.19104 12568.660156 1022.915161 C 12522.824219 1062.639648 12494.558594 1115.350342 12483.864258 1181.04834 Z M 10286.042969 1880.04248 L 10286.042969 743.317871 L 10570.224609 743.317871 L 10570.224609 867.073975 L 10611.476563 867.073975 C 10631.338867 828.877319 10664.1875 795.646606 10710.023438 767.381592 C 10755.858398 739.115601 10816.208008 724.983154 10891.074219 724.983154 C 10972.050781 724.983154 11036.983398 740.643921 11085.875977 771.964844 C 11134.767578 803.286133 11172.199219 844.155884 11198.172852 894.575317 L 11239.424805 894.575317 C 11265.399414 845.683838 11302.067383 805.195923 11349.430664 773.11084 C 11396.793945 741.025879 11464.019531 724.983154 11551.107422 724.983154 C 11621.389648 724.983154 11685.176758 739.879761 11742.47168 769.673218 C 11799.766602 799.466187 11845.601563 844.537842 11879.978516 904.888306 C 11914.355469 965.238892 11931.543945 1041.249146 11931.543945 1132.920898 L 11931.543945 1880.04248 L 11642.779297 1880.04248 L 11642.779297 1153.546997 C 11642.779297 1090.904419 11626.737305 1043.923462 11594.651367 1012.602173 C 11562.566406 981.280762 11517.495117 965.620728 11459.435547 965.620728 C 11393.738281 965.620728 11342.9375 986.628662 11307.033203 1028.644897 C 11271.12793 1070.661011 11253.175781 1130.628906 11253.175781 1208.549683 L 11253.175781 1880.04248 L 10964.411133 1880.04248 L 10964.411133 1153.546997 C 10964.411133 1090.904419 10948.369141 1043.923462 10916.283203 1012.602173 C 10884.199219 981.280762 10839.126953 965.620728 10781.068359 965.620728 C 10715.370117 965.620728 10664.569336 986.628662 10628.665039 1028.644897 C 10592.759766 1070.661011 10574.807617 1130.628906 10574.807617 1208.549683 L 10574.807617 1880.04248 Z M 9314.326172 1912.127563 C 9233.349609 1912.127563 9160.777344 1897.994995 9096.606445 1869.729492 C 9032.4375 1841.463989 8981.635742 1800.212402 8944.203125 1745.9729 C 8906.770508 1691.734009 8888.055664 1625.654907 8888.055664 1547.733765 C 8888.055664 1469.8125 8906.770508 1404.497681 8944.203125 1351.786133 C 8981.635742 1299.075073 9033.583008 1259.350952 9100.044922 1232.613403 C 9166.506836 1205.875732 9242.516602 1192.507324 9328.077148 1192.507324 L 9639.759766 1192.507324 L 9639.759766 1128.33728 C 9639.759766 1074.862061 9622.953125 1030.936523 9589.34082 996.559814 C 9555.727539 962.182739 9502.25293 944.994751 9428.916016 944.994751 C 9357.105469 944.994751 9303.631836 961.418945 9268.491211 994.2677 C 9233.349609 1027.116943 9210.432617 1069.514648 9199.737305 1121.461914 L 8933.890625 1032.08252 C 8952.224609 974.02356 8981.634766 920.93103 9022.124023 872.803345 C 9062.612305 824.675537 9116.850586 785.715576 9184.84082 755.922485 C 9252.831055 726.12915 9335.71582 711.232422 9433.5 711.232422 C 9583.229492 711.232422 9701.637695 748.664917 9788.726563 823.529907 C 9875.814453 898.395264 9919.357422 1006.871948 9919.357422 1148.963257 L 9919.357422 1572.943481 C 9919.357422 1618.779175 9940.74707 1641.696777 9983.527344 1641.696777 L 10075.199219 1641.696777 L 10075.199219 1880.04248 L 9882.688477 1880.04248 C 9826.158203 1880.04248 9779.558594 1866.291748 9742.889648 1838.790405 C 9706.22168 1811.288696 9687.887695 1774.620728 9687.887695 1728.784668 L 9687.887695 1726.49292 L 9644.34375 1726.49292 C 9638.231445 1744.827393 9624.481445 1768.890625 9603.09082 1798.684082 C 9581.701172 1828.477417 9548.088867 1854.832764 9502.25293 1877.750854 C 9456.416992 1900.668457 9393.775391 1912.127563 9314.326172 1912.127563 Z M 9364.746094 1678.365601 C 9445.722656 1678.365601 9511.801758 1655.829834 9562.985352 1610.757813 C 9614.168945 1565.685791 9639.759766 1505.718384 9639.759766 1430.852539 L 9639.759766 1407.934937 L 9348.703125 1407.934937 C 9295.227539 1407.934937 9253.211914 1419.394043 9222.655273 1442.311646 C 9192.097656 1465.229736 9176.819336 1497.314331 9176.819336 1538.566772 C 9176.819336 1579.818848 9192.861328 1613.431396 9224.947266 1639.405273 C 9257.032227 1665.378662 9303.630859 1678.365601 9364.746094 1678.365601 Z M 8081.34668 1880.04248 L 8081.34668 743.317871 L 8365.527344 743.317871 L 8365.527344 871.657715 L 8406.780273 871.657715 C 8423.586914 825.821533 8451.469727 792.208984 8490.430664 770.819214 C 8529.390625 749.428711 8574.844727 738.733765 8626.791016 738.733765 L 8764.297852 738.733765 L 8764.297852 995.413818 L 8622.208008 995.413818 C 8548.871094 995.413818 8488.520508 1014.893799 8441.15625 1053.854614 C 8393.792969 1092.814941 8370.112305 1152.782471 8370.112305 1233.759399 L 8370.112305 1880.04248 Z M 6848.367188 1880.04248 L 6848.367188 275.793945 L 7856.751953 275.793945 L 7856.751953 550.807617 L 7150.882324 550.807617 L 7150.882324 938.119385 L 7801.749023 938.119385 L 7801.749023 1213.133423 L 7150.882324 1213.133423 L 7150.882324 1880.04248 Z M 5340.373047 1316.263916 L 5340.373047 1279.595093 C 5340.373047 1160.421509 5364.054688 1058.438232 5411.418457 973.641724 C 5458.782227 888.845581 5521.805664 823.912109 5600.490723 778.84021 C 5679.175781 733.768188 5765.116699 711.232422 5858.316406 711.232422 C 5962.210938 711.232422 6040.894531 729.566772 6094.369629 766.235596 C 6147.845215 802.904297 6186.805176 841.100098 6211.250977 880.824707 L 6252.50293 880.824707 L 6252.50293 743.317871 L 6536.68457 743.317871 L 6536.68457 2081.719238 C 6536.68457 2159.640625 6513.766602 2221.900146 6467.931152 2268.5 C 6422.094727 2315.099854 6360.981445 2338.399414 6284.587891 2338.399414 L 5523.71582 2338.399414 L 5523.71582 2086.302979 L 6183.749512 2086.302979 C 6226.529785 2086.302979 6247.919922 2063.385254 6247.919922 2017.549683 L 6247.919922 1721.909302 L 6206.66748 1721.909302 C 6191.38916 1746.355225 6169.999512 1771.182617 6142.497559 1796.392334 C 6114.996094 1821.602051 6078.328125 1842.609985 6032.491699 1859.416504 C 5986.65625 1876.2229 5928.598145 1884.626221 5858.316406 1884.626221 C 5765.116699 1884.626221 5679.175781 1862.090332 5600.490723 1817.018311 C 5521.805664 1771.946411 5458.782227 1707.013428 5411.418457 1622.216797 C 5364.054688 1537.42041 5340.373047 1435.437012 5340.373047 1316.263916 Z M 5940.820313 1632.529785 C 6029.437012 1632.529785 6103.536621 1604.264771 6163.123535 1547.733765 C 6222.710449 1491.202759 6252.50293 1411.755249 6252.50293 1309.388184 L 6252.50293 1286.470459 C 6252.50293 1182.575806 6223.092285 1102.746094 6164.269531 1046.979248 C 6105.446777 991.211914 6030.964355 963.328735 5940.820313 963.328735 C 5852.20459 963.328735 5778.104492 991.211914 5718.517578 1046.979248 C 5658.930664 1102.746094 5629.138184 1182.575806 5629.138184 1286.470459 L 5629.138184 1309.388184 C 5629.138184 1411.755249 5658.930664 1491.202759 5718.517578 1547.733765 C 5778.104492 1604.264771 5852.20459 1632.529785 5940.820313 1632.529785 Z M 4529.081543 1880.04248 L 4529.081543 743.317871 L 4813.263184 743.317871 L 4813.263184 871.657715 L 4854.515137 871.657715 C 4871.321777 825.821533 4899.20459 792.208984 4938.165039 770.819214 C 4977.125488 749.428711 5022.579102 738.733765 5074.525879 738.733765 L 5212.033203 738.733765 L 5212.033203 995.413818 L 5069.942871 995.413818 C 4996.605469 995.413818 4936.255371 1014.893799 4888.89209 1053.854614 C 4841.52832 1092.814941 4817.846191 1152.782471 4817.846191 1233.759399 L 4817.846191 1880.04248 Z M 3594.033691 1912.127563 C 3392.355713 1912.127563 3231.932617 1856.743408 3112.759033 1745.9729 C 2993.585693 1635.203003 2934 1476.689453 2934 1270.427734 L 2934 885.408325 C 2934 679.146606 2993.585693 520.633057 3112.759033 409.863159 C 3231.932617 299.09314 3392.355713 243.708496 3594.033691 243.708496 C 3795.71167 243.708496 3956.13501 299.09314 4075.30835 409.863159 C 4194.481934 520.633057 4254.067383 679.146606 4254.067383 885.408325 L 4254.067383 1270.427734 C 4254.067383 1476.689453 4194.481934 1635.203003 4075.30835 1745.9729 C 3956.13501 1856.743408 3795.71167 1912.127563 3594.033691 1912.127563 Z M 3594.033691 1641.696777 C 3707.095703 1641.696777 3794.946289 1608.848389 3857.589111 1543.150146 C 3920.231201 1477.452148 3951.552002 1389.601318 3951.552002 1279.595093 L 3951.552002 876.240967 C 3951.552002 766.235107 3920.231201 678.384033 3857.589111 612.686035 C 3794.946289 546.988037 3707.095703 514.139282 3594.033691 514.139282 C 3482.499756 514.139282 3395.031006 546.988037 3331.624512 612.686035 C 3268.218262 678.384033 3236.515381 766.235107 3236.515381 876.240967 L 3236.515381 1279.595093 C 3236.515381 1389.601318 3268.218262 1477.452148 3331.624512 1543.150146 C 3395.031006 1608.848389 3482.499756 1641.696777 3594.033691 1641.696777 Z"/>
        <linearGradient id="linearGradient1" x1="378.333105" y1="347.955238" x2="1813.028671" y2="1788.290867" gradientUnits="userSpaceOnUse">
            <stop offset="0" stop-color="#434343" stop-opacity="1"/>
            <stop offset="1" stop-color="#000000" stop-opacity="1"/>
        </linearGradient>
        <path id="Shape" fill="url(#linearGradient1)" fill-rule="evenodd" stroke="none" d="M 2114.820313 714.726563 L 2114.820313 82 C 2114.816895 36.712646 2078.104248 0 2032.817017 0 L 82 0 C 36.71265 0 0 36.712646 0 82 L 0 714.726563 C 0 760.010376 36.71265 796.723022 82 796.723022 L 327.085938 796.726563 L 327.085938 428.992188 C 327.085144 369.342041 375.438385 320.98877 435.085938 320.992188 L 1679.59375 320.992188 C 1739.237427 320.98877 1787.590698 369.342041 1787.59375 428.992188 L 1787.59375 796.726563 L 2032.820313 796.726563 C 2078.104248 796.723022 2114.816895 760.010376 2114.820313 714.726563 Z M 1341.75 1110.71875 C 1341.749634 1078.136475 1368.164917 1051.721313 1400.749634 1051.721313 L 1787.59375 1051.71875 L 1787.59375 796.726563 L 327.085938 796.726563 L 327.085938 1051.71875 L 983.617188 1051.71875 C 1024.486816 1051.721313 1057.617798 1084.852295 1057.617798 1125.721313 L 1057.617188 1781.492188 L 1341.75 1781.492188 Z M 1057.617188 2020 L 1057.617188 1781.492188 L 435.085938 1781.492188 C 375.438385 1781.494385 327.085144 1733.141113 327.085938 1673.492188 L 327.085938 1051.71875 L 89.375 1051.71875 C 48.502815 1051.721313 15.371888 1084.852295 15.371888 1125.721313 L 15.375 2020 C 15.371888 2060.869141 48.502815 2094 89.371887 2094 L 983.617188 2094 C 1024.486816 2094 1057.617798 2060.869141 1057.617188 2020 Z M 2108.195313 2034.96875 L 2108.195313 1110.71875 C 2108.193359 1078.136475 2081.77832 1051.721313 2049.193359 1051.721313 L 1787.59375 1051.71875 L 1787.59375 1673.492188 C 1787.590698 1733.141113 1739.237427 1781.494385 1679.590698 1781.494385 L 1341.75 1781.492188 L 1341.75 2034.96875 C 1341.749634 2067.552002 1368.164917 2093.967041 1400.749634 2093.967041 L 2049.195313 2093.96875 C 2081.77832 2093.967041 2108.193359 2067.552002 2108.195313 2034.96875 Z"/>
    </g>
</svg>
